<svg xmlns="http://www.w3.org/2000/svg" xmlns:v="http://vecta.io" xmlns:xlink="http://www.w3.org/1999/xlink" viewBox="0 0 79.6875 85" stroke="#000" stroke-linecap="round" stroke-linejoin="round" fill="#fff" fill-rule="evenodd" font-family="Roboto" font-size="14px" text-anchor="middle" width="300" height="300"><defs><style type="text/css"></style></defs><use xlink:href="#dnw16nwLioDwOucwrRAVz-.sym" x="2.3437" y="2.5"><title>Jest</title></use><symbol id="dnw16nwLioDwOucwrRAVz-.sym" overflow="visible" v:tags="web technology, testing framework, react, unit testing"><title>Jest</title><desc>Jest web technology symbol.</desc><g id="j39rrz0g2qc" class="Group.cls" transform="translate(0 0)" v:size="79.6875,85,2.3437,2.5"><g id="j39b17qtajq" transform="translate(44.63 22.1426)"><path d="M 4.9433 0 L 0 9.6815 C 1.6239 11.1407 2.7702 13.0631 3.2239 15.2403 L 6.9492 15.2403 C 7.3791 13.1789 8.4298 11.326 9.9343 9.89 L 4.9433 0 Z" fill="none" stroke="none"></path></g><g id="j39b17r2ajr" transform="translate(30.77 4.6324)"><path d="M 9.6955 24.8524 L 18.7941 7.0179 L 27.8686 24.9681 C 28.2268 24.8524 28.5851 24.7597 28.9433 24.667 L 37.5642 0 L 0 0 L 8.597 24.5976 C 8.9552 24.667 9.3374 24.7597 9.6955 24.8524 Z" fill="none" stroke="none"></path></g><g id="j39b17rgajs" transform="translate(31.274 33.6307)"><path d="M 6.0656 11.6271 C 9.3851 11.6271 12.0836 9.0099 12.0836 5.7904 C 12.0836 4.6092 11.7254 3.5205 11.1045 2.5941 C 10.9134 2.293 10.6746 2.015 10.4358 1.7603 C 10.4358 1.7603 10.4119 1.7371 10.4119 1.7371 C 10.1731 1.4823 9.8866 1.2507 9.6001 1.0654 C 9.6001 1.0654 9.5761 1.0423 9.5761 1.0423 C 9.5045 0.996 9.4089 0.9265 9.3134 0.8801 C 9.2896 0.8801 9.2896 0.857 9.2657 0.857 C 9.1701 0.8106 9.0746 0.7412 8.9792 0.6949 C 8.9792 0.6949 8.9792 0.6949 8.9552 0.6949 C 8.8597 0.6485 8.7403 0.579 8.6448 0.5327 C 8.6448 0.5327 8.6209 0.5327 8.6209 0.5327 C 8.5254 0.4864 8.4298 0.4401 8.3344 0.4169 C 8.3104 0.4169 8.2865 0.3938 8.2627 0.3938 C 8.191 0.3706 8.0956 0.3243 8.0239 0.3011 C 8 0.3011 7.9761 0.2779 7.9283 0.2779 C 7.8329 0.2548 7.7374 0.2084 7.6418 0.1853 C 7.6179 0.1853 7.6179 0.1853 7.6179 0.1853 C 7.4985 0.1621 7.403 0.139 7.2836 0.1158 C 7.2597 0.1158 7.2358 0.1158 7.188 0.0927 C 7.0926 0.0695 7.0209 0.0695 6.9253 0.0463 C 6.8776 0.0463 6.8538 0.0463 6.806 0.0232 C 6.7343 0.0232 6.6388 0 6.5671 0 C 6.5194 0 6.4956 0 6.4477 0 C 6.3284 0 6.209 0 6.0896 0 C 5.9702 0 5.8508 0 5.7314 0 C 5.7075 0 5.6597 0 5.6358 0 C 5.5403 0 5.4687 0.0232 5.3732 0.0232 C 5.3493 0.0232 5.3253 0.0232 5.2776 0.0232 C 5.182 0.0463 5.0866 0.0463 4.9911 0.0695 C 4.9672 0.0695 4.9433 0.0695 4.9194 0.0695 C 4.8 0.0927 4.7045 0.1158 4.5851 0.139 C 1.9583 0.7643 0 3.0805 0 5.8136 C 0.0477 8.9867 2.7463 11.6271 6.0656 11.6271 Z" fill="none" stroke="none"></path></g><g id="j39b17rpajt" transform="translate(56 33.5611)"><path d="M 6.6627 0.0232 C 6.6388 0.0232 6.6388 0.0232 6.6149 0.0232 C 6.5194 0.0232 6.4477 0 6.3523 0 C 6.2567 0 6.1612 0 6.0418 0 C 5.9224 0 5.8029 0 5.6597 0.0232 C 5.612 0.0232 5.5881 0.0232 5.5403 0.0232 C 5.4447 0.0232 5.3493 0.0463 5.2538 0.0463 C 5.2299 0.0463 5.182 0.0463 5.1582 0.0695 C 5.0388 0.0927 4.9194 0.1158 4.8 0.139 C 4.8 0.139 4.7761 0.139 4.7761 0.139 C 4.6567 0.1621 4.5611 0.1853 4.4418 0.2084 C 4.4179 0.2084 4.3702 0.2316 4.3463 0.2316 C 4.2507 0.2548 4.1552 0.2779 4.0597 0.3243 C 4.0358 0.3243 4.012 0.3474 3.9881 0.3474 C 3.8687 0.3938 3.7493 0.4401 3.6537 0.4864 C 3.6537 0.4864 3.6537 0.4864 3.6537 0.4864 C 3.5343 0.5327 3.4388 0.579 3.3193 0.6254 C 3.2955 0.6254 3.2716 0.6485 3.2478 0.6485 C 3.1522 0.6949 3.0567 0.7412 2.9612 0.8106 C 2.9612 0.8106 2.9373 0.8106 2.9373 0.8338 C 2.7224 0.9496 2.5075 1.0886 2.3164 1.2507 C 2.3164 1.2507 2.2925 1.2739 2.2925 1.2739 C 1.9821 1.5055 1.7194 1.7603 1.4567 2.0382 C 1.4567 2.0382 1.4567 2.0382 1.4567 2.0382 C 1.1941 2.3161 0.9791 2.6404 0.788 2.9647 C 0.2865 3.8216 0 4.8176 0 5.8599 C 0 9.0793 2.6985 11.6966 6.0179 11.6966 C 9.3374 11.6966 12.0358 9.0793 12.0358 5.8599 C 12.0358 3.0342 9.9343 0.6485 7.188 0.1158 C 7.0447 0.0695 6.8538 0.0463 6.6627 0.0232 Z" fill="none" stroke="none"></path></g><g id="j39b17rvaju" transform="translate(6.37 33.5842)"><path d="M 6.0179 11.6734 C 9.3374 11.6734 12.0358 9.0562 12.0358 5.8367 C 12.0358 2.6172 9.3374 0 6.0179 0 C 2.6985 0 0 2.6172 0 5.8367 C 0 9.0562 2.6985 11.6734 6.0179 11.6734 Z" fill="none" stroke="none"></path></g><g id="j39b17rzajv" transform="translate(4.77 42.015)"><path d="M 57.2794 7.7591 C 52.3123 7.7591 48.1331 4.447 46.9391 0 L 42.9272 0 C 41.7331 4.447 37.5541 7.7591 32.5869 7.7591 C 32.0138 7.7591 31.4645 7.7128 30.9391 7.6433 C 29.554 9.7047 27.9063 11.6039 25.9719 13.3642 C 22.557 16.491 18.6883 18.8072 14.5093 20.2663 L 13.5301 20.6138 L 12.6227 20.1505 C 7.6077 17.6491 5.0286 12.5767 5.9362 7.6665 C 5.363 7.5738 4.8137 7.4348 4.2883 7.2496 C 4.1928 7.4117 4.1212 7.597 4.0256 7.7823 C 2.4973 10.8396 0.8973 13.9896 0.3242 17.3712 C -0.2967 20.9844 -0.5594 27.5854 4.6944 31.106 C 6.9868 32.6346 9.3988 33.3989 12.0973 33.3989 C 17.2794 33.3989 22.8675 30.7122 28.7898 27.8634 C 33.4227 25.6398 38.1988 23.3237 43.166 22.1425 C 45.0526 21.7024 46.963 21.4244 48.8018 21.1696 C 52.169 20.7064 55.369 20.2432 57.972 18.784 C 60.7421 17.2322 62.6287 14.6381 63.154 11.6734 C 63.4884 9.8668 63.2973 8.037 62.6764 6.3463 C 61.1003 7.2264 59.2615 7.7591 57.2794 7.7591 Z" fill="none" stroke="none"></path></g><g id="j39b17scajw" transform="translate(0 0)"><path d="M 72.7313 39.3978 C 72.7313 34.5802 69.3164 30.5269 64.7313 29.3689 L 75 0 L 24.1104 0 L 34.4029 29.4615 C 29.9611 30.7122 26.6894 34.696 26.6894 39.421 C 26.6894 42.8952 28.4806 45.9757 31.2029 47.8749 C 30.1283 49.3573 28.8865 50.7238 27.4776 52.0209 C 24.8267 54.4296 21.8895 56.2826 18.7134 57.5101 C 15.8477 55.634 14.6059 52.322 15.7283 49.3573 C 20.0985 48.0602 23.2745 44.0996 23.2745 39.4441 C 23.2745 33.7232 18.4746 29.0909 12.6 29.0909 C 6.7014 29.0909 1.9015 33.7464 1.9015 39.4673 C 1.9015 42.293 3.0955 44.8871 5.0059 46.74 C 4.8387 47.0643 4.6716 47.3885 4.5044 47.7359 C 2.9045 50.9322 1.0895 54.5454 0.397 58.5987 C -0.9882 66.7053 1.2806 73.2137 6.7492 76.8963 C 9.8298 78.9577 13.2209 80 16.8745 80 C 23.1552 80 29.5313 76.9427 35.6925 73.978 C 40.0865 71.8703 44.6239 69.6699 49.0895 68.6045 C 50.7372 68.2108 52.4567 67.9791 54.2717 67.7244 C 57.9492 67.2148 61.7462 66.6821 65.1611 64.7597 C 69.1492 62.513 71.8716 58.7608 72.6597 54.4528 C 73.2567 51.1407 72.6597 47.8055 71.1313 44.8871 C 72.1581 43.289 72.7313 41.4128 72.7313 39.3978 Z M 68.0746 39.3978 C 68.0746 42.6172 65.3761 45.2345 62.0567 45.2345 C 58.7372 45.2345 56.0388 42.6172 56.0388 39.3978 C 56.0388 38.3555 56.3254 37.3596 56.8268 36.5026 C 57.0178 36.1784 57.2567 35.8541 57.4954 35.5762 C 57.4954 35.5762 57.4954 35.5762 57.4954 35.5762 C 57.7343 35.2982 58.0208 35.0434 58.3313 34.8118 C 58.3313 34.8118 58.3552 34.7886 58.3552 34.7886 C 58.5463 34.6497 58.7611 34.5107 58.9761 34.3718 C 58.9761 34.3718 58.9999 34.3718 58.9999 34.3486 C 59.0955 34.3022 59.191 34.2328 59.2866 34.1864 C 59.3104 34.1864 59.3343 34.1633 59.3581 34.1633 C 59.4537 34.117 59.5731 34.0707 59.6925 34.0243 C 59.6925 34.0243 59.6925 34.0243 59.6925 34.0243 C 59.8119 33.978 59.9313 33.9317 60.0268 33.8853 C 60.0508 33.8853 60.0746 33.8622 60.0985 33.8622 C 60.194 33.839 60.2896 33.7927 60.385 33.7696 C 60.409 33.7696 60.4567 33.7464 60.4805 33.7464 C 60.6 33.7232 60.6955 33.7 60.8149 33.6769 C 60.8149 33.6769 60.8388 33.6769 60.8388 33.6769 C 60.9582 33.6537 61.0776 33.6306 61.197 33.6074 C 61.2209 33.6074 61.2686 33.6074 61.2926 33.5842 C 61.388 33.5842 61.4835 33.5611 61.5791 33.5611 C 61.6268 33.5611 61.6507 33.5611 61.6985 33.5611 C 61.8179 33.5611 61.9373 33.5379 62.0806 33.5379 C 62.1761 33.5379 62.2716 33.5379 62.391 33.5379 C 62.4865 33.5379 62.5582 33.5379 62.6536 33.5611 C 62.6776 33.5611 62.6776 33.5611 62.7015 33.5611 C 62.8925 33.5842 63.0836 33.6074 63.2745 33.6537 C 65.997 34.2096 68.0746 36.5721 68.0746 39.3978 Z M 30.7731 4.6323 L 68.3373 4.6323 L 59.7164 29.2994 C 59.3581 29.3689 58.9999 29.4846 58.6417 29.6005 L 49.5671 11.6503 L 40.4686 29.4846 C 40.1105 29.3689 39.7283 29.2994 39.3462 29.2299 L 30.7731 4.6323 Z M 47.8477 37.3828 C 47.394 35.2055 46.2477 33.26 44.6239 31.824 L 49.5671 22.1425 L 54.5582 32.0324 C 53.0776 33.4685 52.0029 35.2982 51.5731 37.3828 L 47.8477 37.3828 Z M 35.8835 33.7232 C 36.003 33.7 36.0984 33.6769 36.2178 33.6537 C 36.2418 33.6537 36.2656 33.6537 36.2895 33.6537 C 36.3851 33.6306 36.4806 33.6306 36.576 33.6074 C 36.5999 33.6074 36.6239 33.6074 36.6716 33.6074 C 36.7671 33.6074 36.8387 33.5842 36.9343 33.5842 C 36.9581 33.5842 37.006 33.5842 37.0298 33.5842 C 37.1492 33.5842 37.2686 33.5842 37.388 33.5842 C 37.5075 33.5842 37.6269 33.5842 37.7462 33.5842 C 37.794 33.5842 37.8179 33.5842 37.8657 33.5842 C 37.9611 33.5842 38.0328 33.6074 38.1044 33.6074 C 38.1522 33.6074 38.1761 33.6074 38.2238 33.6306 C 38.3193 33.6537 38.391 33.6537 38.4866 33.6769 C 38.5104 33.6769 38.5343 33.6769 38.582 33.7 C 38.7014 33.7232 38.8208 33.7464 38.9164 33.7696 C 38.9402 33.7696 38.9402 33.7696 38.9402 33.7696 C 39.0358 33.7927 39.1313 33.8159 39.2268 33.8622 C 39.2507 33.8622 39.2746 33.8853 39.3223 33.8853 C 39.394 33.9085 39.4896 33.9317 39.5611 33.978 C 39.585 33.978 39.6088 34.0011 39.6328 34.0011 C 39.7283 34.0475 39.8238 34.0707 39.9193 34.117 C 39.9193 34.117 39.9432 34.117 39.9432 34.117 C 40.0626 34.1633 40.1582 34.2096 40.2537 34.2791 C 40.2537 34.2791 40.2537 34.2791 40.2776 34.2791 C 40.3731 34.3254 40.4686 34.3949 40.5641 34.4412 C 40.588 34.4412 40.588 34.4644 40.612 34.4644 C 40.7074 34.5107 40.7791 34.5802 40.8746 34.6265 C 40.8746 34.6265 40.8985 34.6497 40.8985 34.6497 C 41.185 34.8581 41.4477 35.0897 41.7104 35.3214 C 41.7104 35.3214 41.7342 35.3445 41.7342 35.3445 C 41.9731 35.5993 42.2119 35.8773 42.4029 36.1784 C 43.0238 37.1048 43.3821 38.1934 43.3821 39.3746 C 43.3821 42.5941 40.6835 45.2113 37.3642 45.2113 C 34.0447 45.2113 31.3462 42.5941 31.3462 39.3746 C 31.3223 36.6647 33.2567 34.3718 35.8835 33.7232 Z M 12.385 33.5611 C 15.7045 33.5611 18.4029 36.1784 18.4029 39.3978 C 18.4029 42.6172 15.7045 45.2345 12.385 45.2345 C 9.0656 45.2345 6.3671 42.6172 6.3671 39.3978 C 6.3671 36.1784 9.0656 33.5611 12.385 33.5611 Z M 67.9313 53.6421 C 67.4059 56.6068 65.5194 59.2009 62.7492 60.7527 C 60.1462 62.2119 56.9463 62.6751 53.5791 63.1384 C 51.7402 63.3932 49.8059 63.6711 47.9432 64.1112 C 42.976 65.2924 38.1999 67.6086 33.5671 69.8321 C 27.6447 72.6809 22.0566 75.3677 16.8745 75.3677 C 14.176 75.3677 11.7641 74.6265 9.4716 73.0747 C 4.2178 69.5542 4.4805 62.9531 5.1014 59.3399 C 5.6746 55.9583 7.2745 52.7852 8.8029 49.751 C 8.8984 49.5657 8.9701 49.4036 9.0656 49.2183 C 9.591 49.4036 10.1402 49.5425 10.7134 49.6352 C 9.806 54.5454 12.385 59.6178 17.3999 62.1193 L 18.3074 62.5825 L 19.2865 62.2351 C 23.4657 60.7991 27.3343 58.4597 30.7492 55.3329 C 32.6835 53.5727 34.3312 51.6734 35.7163 49.6121 C 36.2656 49.7047 36.8148 49.7278 37.3642 49.7278 C 42.3313 49.7278 46.5105 46.4157 47.7044 41.9687 L 51.7164 41.9687 C 52.9105 46.4389 57.0895 49.7278 62.0567 49.7278 C 64.0387 49.7278 65.8776 49.1951 67.4537 48.2918 C 68.0746 50.0289 68.2656 51.8355 67.9313 53.6421 Z" fill="#99424f" fill-opacity="1" stroke="none"></path></g></g></symbol></svg>