<svg id="svg" xmlns="http://www.w3.org/2000/svg" xmlns:xlink="http://www.w3.org/1999/xlink" width="400" height="400" viewBox="0, 0, 400,400"><g id="svgg"><path id="path0" d="M0.000 200.000 L 0.000 400.000 200.000 400.000 L 400.000 400.000 400.000 200.000 L 400.000 0.000 200.000 0.000 L 0.000 0.000 0.000 200.000 M209.117 116.800 C 209.200 117.513,208.769 118.298,207.617 119.534 C 206.105 121.154,206.000 121.421,206.000 123.634 C 206.000 126.422,206.163 126.482,208.277 124.471 C 213.267 119.724,219.336 121.064,214.954 125.946 C 211.756 129.508,211.573 131.188,214.300 131.971 C 215.345 132.271,216.380 132.639,216.600 132.789 C 216.820 132.939,217.900 133.388,219.000 133.786 C 220.100 134.184,221.284 134.755,221.631 135.055 C 222.335 135.662,225.030 135.799,225.373 135.244 C 225.494 135.049,226.089 134.770,226.696 134.626 C 228.072 134.298,232.648 132.647,235.726 131.367 C 242.614 128.504,243.825 131.055,241.819 144.200 C 240.529 152.648,240.543 153.075,242.204 155.800 C 243.619 158.121,244.212 159.316,246.276 164.000 C 246.809 165.210,247.410 166.560,247.612 167.000 C 247.930 167.694,248.997 171.494,249.973 175.409 C 250.317 176.786,252.248 180.000,252.732 180.000 C 253.226 180.000,256.916 185.488,258.379 188.400 C 259.097 189.830,259.914 191.450,260.193 192.000 C 263.375 198.268,263.662 210.066,260.874 220.000 C 258.043 230.087,247.290 241.177,233.600 248.130 C 231.510 249.191,229.095 250.676,228.233 251.430 L 226.667 252.800 244.526 252.800 L 262.385 252.800 262.607 253.700 C 262.729 254.195,262.777 257.480,262.714 261.000 L 262.600 267.400 203.200 267.400 L 143.800 267.400 143.800 260.200 L 143.800 253.000 162.534 252.800 L 181.268 252.600 180.085 251.726 C 179.434 251.245,177.574 249.697,175.951 248.287 C 174.328 246.876,172.100 245.201,171.000 244.565 C 154.406 234.967,145.442 216.624,148.734 199.000 C 149.448 195.179,151.632 189.848,154.223 185.600 C 156.466 181.924,156.796 181.059,157.811 176.200 C 158.880 171.078,160.770 165.680,163.434 160.142 C 164.800 157.302,164.806 157.264,164.374 154.342 C 164.135 152.724,163.776 150.050,163.577 148.400 C 163.377 146.750,162.946 143.510,162.618 141.200 C 161.374 132.432,161.367 133.134,162.714 131.692 C 164.179 130.123,165.808 129.999,168.667 131.238 C 171.482 132.458,177.042 134.400,177.719 134.400 C 178.040 134.400,178.510 134.650,178.764 134.956 C 179.018 135.263,179.805 135.629,180.513 135.771 C 181.221 135.913,182.261 136.128,182.824 136.249 C 183.476 136.389,184.349 136.167,185.224 135.639 C 187.110 134.503,188.019 134.110,192.365 132.553 C 194.435 131.811,196.196 131.137,196.278 131.055 C 196.360 130.974,195.250 129.702,193.813 128.229 C 192.093 126.465,191.200 125.228,191.200 124.608 C 191.200 122.241,192.551 121.219,194.408 122.182 C 195.063 122.522,196.173 123.099,196.873 123.466 L 198.145 124.131 199.273 122.781 C 199.893 122.038,200.407 121.153,200.416 120.815 C 200.498 117.725,208.779 113.904,209.117 116.800 M178.600 151.151 C 177.500 151.519,175.880 152.163,175.000 152.582 C 172.731 153.664,167.169 159.405,166.257 161.606 C 165.848 162.593,165.263 163.878,164.957 164.462 C 164.651 165.046,164.400 165.865,164.400 166.282 C 164.400 166.699,164.179 167.261,163.909 167.531 C 163.565 167.875,163.418 169.810,163.418 174.000 C 163.418 178.190,163.565 180.125,163.909 180.469 C 164.179 180.739,164.400 181.301,164.400 181.718 C 164.400 182.135,164.646 182.954,164.946 183.538 C 165.246 184.122,165.855 185.416,166.298 186.412 C 169.073 192.651,177.551 198.000,184.664 198.000 C 186.260 198.000,186.456 198.855,185.100 199.904 C 178.316 205.151,174.000 213.742,174.000 222.000 C 174.000 226.047,174.179 226.946,176.068 232.366 C 178.613 239.666,186.512 246.762,195.000 249.374 C 196.320 249.780,197.832 250.312,198.361 250.556 C 199.733 251.190,212.229 251.131,212.873 250.487 C 213.141 250.219,213.626 250.000,213.951 250.000 C 214.843 250.000,221.380 247.537,221.533 247.143 C 221.607 246.955,221.819 246.800,222.005 246.800 C 225.380 246.800,233.516 237.058,235.797 230.284 C 237.124 226.346,237.245 215.891,235.979 214.620 C 235.770 214.411,235.600 213.948,235.600 213.591 C 235.600 212.534,233.249 207.965,231.519 205.660 C 230.045 203.695,229.278 202.917,225.800 199.855 C 224.373 198.598,224.892 197.900,227.788 197.186 C 231.078 196.373,232.553 195.808,234.156 194.744 C 245.935 186.931,248.302 168.799,239.000 157.636 C 229.547 146.293,212.780 148.627,205.878 162.247 C 204.728 164.515,203.573 165.707,203.302 164.902 C 199.807 154.517,188.071 147.984,178.600 151.151 M222.892 157.863 C 235.016 162.570,234.271 183.821,221.856 187.406 C 219.660 188.040,218.874 188.035,216.247 187.376 C 215.225 187.120,215.200 187.160,215.200 189.063 L 215.200 191.013 210.494 195.706 C 205.892 200.296,205.748 200.400,204.000 200.400 C 201.602 200.400,192.800 192.014,192.800 189.730 C 192.800 188.058,192.409 187.870,190.544 188.649 C 176.515 194.511,168.392 168.037,181.806 160.175 C 193.011 153.609,203.412 168.558,197.390 182.574 C 197.095 183.261,197.274 183.227,198.979 182.274 C 201.298 180.978,205.968 180.749,208.057 181.829 C 209.652 182.654,209.816 182.400,208.891 180.539 C 203.034 168.758,212.300 153.751,222.892 157.863 M216.901 167.487 C 215.769 167.699,215.314 169.317,216.016 170.631 C 216.685 171.880,218.955 172.004,219.586 170.826 C 220.747 168.656,219.427 167.014,216.901 167.487 M186.557 168.629 C 186.138 170.298,186.967 171.600,188.447 171.600 C 189.824 171.600,190.767 170.705,190.787 169.380 C 190.818 167.373,187.041 166.702,186.557 168.629 " stroke="none" fill="#fbfbfb" fill-rule="evenodd"></path><path id="path1" d="M206.400 117.000 C 206.126 117.330,205.686 117.600,205.423 117.600 C 204.559 117.600,201.600 120.439,201.600 121.268 C 201.600 121.711,201.240 122.531,200.800 123.091 C 200.360 123.650,200.000 124.347,200.000 124.640 C 200.000 125.585,198.647 126.004,197.575 125.391 C 197.039 125.085,196.150 124.647,195.600 124.417 C 195.050 124.187,194.278 123.814,193.884 123.586 C 193.490 123.359,192.995 123.280,192.784 123.410 C 191.880 123.968,192.583 125.202,195.400 128.000 C 199.398 131.971,199.573 131.603,192.583 133.935 C 189.499 134.964,188.161 135.551,186.308 136.686 C 184.565 137.754,181.845 137.899,180.132 137.016 C 178.462 136.155,173.486 134.400,172.715 134.400 C 172.348 134.400,171.945 134.234,171.819 134.031 C 171.694 133.828,171.041 133.541,170.368 133.393 C 169.696 133.245,168.663 132.873,168.073 132.565 C 166.576 131.784,163.643 131.822,163.335 132.626 C 163.203 132.970,163.308 135.085,163.570 137.326 C 163.831 139.567,164.197 142.750,164.384 144.400 C 164.570 146.050,164.920 147.907,165.161 148.526 C 165.403 149.145,165.601 150.495,165.603 151.526 C 165.604 152.557,165.721 154.617,165.861 156.104 L 166.116 158.808 167.414 157.304 C 169.901 154.422,170.215 154.133,172.670 152.477 C 179.607 147.797,188.481 147.811,195.330 152.512 C 198.911 154.970,201.189 157.604,203.367 161.801 C 203.863 162.757,204.797 162.509,204.802 161.420 C 204.805 160.695,207.063 157.557,209.071 155.486 C 218.662 145.597,234.043 147.255,241.694 159.000 C 242.554 160.320,243.132 160.950,242.978 160.400 C 242.640 159.195,241.537 157.037,240.422 155.400 C 239.514 154.066,239.362 150.805,240.020 146.800 C 240.219 145.590,240.551 143.070,240.759 141.200 C 240.966 139.330,241.332 136.938,241.573 135.884 C 242.621 131.298,240.827 131.029,231.600 134.389 C 222.626 137.657,223.532 137.519,220.615 136.067 C 219.214 135.370,217.918 134.794,217.734 134.786 C 217.550 134.779,216.680 134.425,215.800 134.000 C 214.920 133.575,213.727 133.221,213.149 133.214 C 210.155 133.175,210.473 128.896,213.737 125.310 C 217.161 121.547,212.192 122.174,208.625 125.955 C 206.163 128.564,204.800 127.600,204.800 123.248 C 204.800 120.642,204.847 120.516,206.400 119.000 C 207.280 118.141,208.000 117.204,208.000 116.919 C 208.000 116.213,207.012 116.263,206.400 117.000 M163.600 163.000 C 163.102 164.226,162.777 165.310,162.876 165.409 C 162.976 165.509,163.470 164.593,163.975 163.375 C 164.480 162.157,164.806 161.072,164.699 160.966 C 164.592 160.859,164.098 161.774,163.600 163.000 M244.804 165.220 C 244.807 165.539,245.077 166.684,245.404 167.764 C 246.209 170.415,246.204 178.124,245.397 180.686 C 244.069 184.901,243.840 185.479,242.690 187.525 C 240.368 191.655,235.821 195.841,232.000 197.364 C 231.010 197.759,229.887 198.244,229.505 198.441 C 229.123 198.638,228.409 198.800,227.917 198.800 C 227.155 198.800,227.380 199.168,229.445 201.300 C 233.456 205.441,234.574 207.164,237.031 213.000 C 238.808 217.219,238.735 228.461,236.909 231.800 C 236.668 232.240,235.969 233.680,235.355 235.000 C 229.042 248.572,209.802 256.347,195.400 251.146 C 172.003 242.696,164.860 217.531,181.302 201.478 C 183.870 198.972,183.847 198.800,180.957 198.800 C 179.797 198.800,178.736 198.620,178.600 198.400 C 178.464 198.180,178.084 198.000,177.754 198.000 C 173.392 198.000,166.514 190.933,163.155 183.000 C 161.833 179.877,161.248 172.951,162.041 169.801 C 162.589 167.625,162.294 166.548,161.603 168.200 C 160.568 170.672,160.446 171.047,160.040 173.000 C 158.666 179.605,157.899 182.582,157.362 183.402 C 155.902 185.630,155.783 202.389,157.179 209.200 C 159.028 218.222,160.170 222.143,162.538 227.600 C 163.444 229.690,164.864 232.528,165.693 233.907 C 166.522 235.286,167.200 236.523,167.200 236.656 C 167.200 237.328,170.966 242.038,172.850 243.722 C 174.032 244.779,175.990 246.533,177.200 247.619 C 178.410 248.706,180.390 250.310,181.600 251.184 L 183.800 252.774 187.938 252.787 C 192.168 252.800,193.351 253.130,195.400 254.868 C 195.840 255.241,196.695 255.734,197.300 255.963 C 197.905 256.193,198.400 256.671,198.400 257.027 C 198.400 257.383,198.760 258.131,199.200 258.691 C 200.238 260.011,200.238 262.061,199.200 263.000 C 198.760 263.398,198.400 263.953,198.400 264.233 C 198.400 266.087,194.456 266.989,192.630 265.552 L 191.553 264.705 190.651 265.552 C 189.502 266.632,187.554 266.655,186.600 265.600 C 185.687 264.591,185.156 264.591,184.293 265.600 C 183.155 266.928,181.188 266.653,179.198 264.887 C 176.245 262.267,176.616 257.259,179.837 256.249 C 180.297 256.104,181.093 255.539,181.606 254.993 L 182.539 254.000 163.470 254.000 L 144.400 254.000 144.400 260.400 L 144.400 266.800 203.200 266.800 L 262.000 266.800 262.000 260.400 L 262.000 254.000 243.522 254.000 L 225.045 254.000 226.422 254.966 C 230.533 257.847,232.080 261.543,229.800 263.037 C 229.250 263.397,228.800 264.011,228.800 264.400 C 228.800 266.169,224.967 267.072,223.707 265.600 C 223.330 265.160,222.792 264.800,222.511 264.800 C 222.230 264.800,221.640 265.160,221.200 265.600 C 220.760 266.040,219.867 266.400,219.214 266.400 C 218.438 266.400,217.880 266.124,217.600 265.600 C 217.365 265.160,216.771 264.800,216.282 264.800 C 215.793 264.800,215.168 265.160,214.893 265.600 C 213.059 268.536,207.879 264.468,208.082 260.252 L 208.200 257.807 210.200 256.511 C 211.300 255.798,212.635 254.716,213.167 254.107 C 214.119 253.016,214.206 252.999,219.045 252.951 C 223.000 252.911,224.083 252.775,224.607 252.251 C 224.964 251.893,225.424 251.600,225.627 251.600 C 225.831 251.600,226.673 250.999,227.499 250.266 C 228.324 249.532,229.629 248.587,230.398 248.166 C 232.356 247.093,235.775 243.807,237.421 241.417 C 238.184 240.308,239.446 238.500,240.225 237.400 C 241.461 235.655,245.163 228.481,246.005 226.200 C 246.167 225.760,246.524 224.860,246.796 224.200 C 252.139 211.272,253.641 187.680,249.698 178.600 C 249.125 177.280,248.434 175.300,248.163 174.200 C 246.761 168.521,244.790 163.250,244.804 165.220 M184.800 165.648 C 178.245 168.255,178.069 180.582,184.541 183.810 C 190.538 186.802,196.414 178.454,193.771 170.696 C 192.935 168.243,192.000 167.416,192.000 169.129 C 192.000 172.139,188.483 173.744,186.416 171.678 C 184.394 169.655,185.269 166.808,188.088 166.240 C 189.117 166.033,189.271 165.894,188.800 165.594 C 188.036 165.108,186.092 165.134,184.800 165.648 M217.815 165.563 C 217.120 165.835,217.166 165.904,218.215 166.165 C 221.305 166.932,222.202 169.886,219.927 171.800 C 217.710 173.665,214.428 172.055,214.379 169.078 L 214.358 167.800 213.683 168.771 C 207.822 177.202,217.298 189.413,224.054 182.136 C 229.891 175.848,224.966 162.767,217.815 165.563 " stroke="none" fill="#4d2b16" fill-rule="evenodd"></path><path id="path2" d="M205.666 116.993 C 204.164 117.820,203.679 118.499,205.094 117.793 C 205.803 117.439,206.488 116.981,206.616 116.775 C 206.892 116.327,206.861 116.334,205.666 116.993 M205.875 119.522 C 204.796 120.648,204.319 124.682,205.043 126.567 C 205.514 127.795,207.340 127.304,209.019 125.500 L 210.600 123.800 208.948 125.334 C 206.305 127.789,205.432 127.386,205.281 123.641 C 205.171 120.884,205.237 120.605,206.256 119.541 C 206.858 118.914,207.260 118.400,207.150 118.400 C 207.040 118.400,206.466 118.905,205.875 119.522 M192.480 123.280 C 191.584 124.176,191.995 124.937,195.086 128.114 C 198.058 131.167,198.143 131.308,197.386 131.896 C 196.685 132.442,196.679 132.480,197.333 132.254 C 197.736 132.114,198.141 132.000,198.233 132.000 C 198.982 132.000,197.928 130.511,195.400 128.000 C 193.750 126.361,192.400 124.711,192.400 124.334 C 192.400 123.435,193.151 122.991,193.715 123.555 C 193.960 123.800,194.338 124.000,194.556 124.000 C 194.950 124.000,193.602 122.837,193.180 122.813 C 193.059 122.806,192.744 123.016,192.480 123.280 M199.238 124.834 C 198.411 125.953,198.399 126.029,199.113 125.647 C 199.546 125.415,199.996 124.860,200.113 124.413 C 200.393 123.340,200.314 123.378,199.238 124.834 M195.859 124.397 C 196.332 124.588,196.837 124.937,196.983 125.172 C 197.128 125.407,197.441 125.600,197.678 125.600 C 197.914 125.600,197.650 125.240,197.091 124.800 C 196.531 124.360,195.832 124.011,195.537 124.025 C 195.242 124.039,195.387 124.207,195.859 124.397 M168.146 132.602 C 168.776 132.931,169.496 133.199,169.746 133.198 C 169.996 133.196,169.684 132.926,169.054 132.598 C 168.424 132.269,167.704 132.001,167.454 132.002 C 167.204 132.004,167.516 132.274,168.146 132.602 M211.711 132.682 C 212.034 133.005,212.696 133.209,213.182 133.135 C 213.899 133.026,213.788 132.914,212.596 132.548 C 211.303 132.150,211.195 132.167,211.711 132.682 M235.600 132.600 C 234.322 133.330,234.596 133.334,236.600 132.612 C 237.480 132.295,237.840 132.034,237.400 132.032 C 236.960 132.030,236.150 132.286,235.600 132.600 M192.000 133.800 C 190.694 134.547,191.151 134.555,192.854 133.816 C 193.594 133.494,193.930 133.231,193.600 133.230 C 193.270 133.229,192.550 133.486,192.000 133.800 M215.400 133.786 C 217.603 134.828,219.721 135.612,219.886 135.448 C 219.975 135.358,219.183 134.966,218.124 134.576 C 217.066 134.187,216.029 133.718,215.820 133.534 C 215.611 133.350,215.161 133.204,214.820 133.209 C 214.479 133.214,214.740 133.474,215.400 133.786 M188.800 135.000 C 188.250 135.314,187.980 135.572,188.200 135.572 C 188.420 135.572,189.050 135.314,189.600 135.000 C 190.150 134.686,190.420 134.428,190.200 134.428 C 189.980 134.428,189.350 134.686,188.800 135.000 M185.800 136.590 C 184.920 137.132,184.325 137.581,184.477 137.588 C 184.824 137.603,187.600 135.979,187.600 135.760 C 187.600 135.500,187.476 135.557,185.800 136.590 M220.400 135.776 C 220.400 136.190,222.791 137.199,223.680 137.159 C 224.432 137.126,224.381 137.065,223.400 136.829 C 222.740 136.669,221.795 136.321,221.300 136.055 C 220.805 135.789,220.400 135.664,220.400 135.776 M163.314 138.200 C 163.317 139.300,163.395 139.703,163.487 139.095 C 163.579 138.486,163.577 137.586,163.482 137.095 C 163.387 136.603,163.311 137.100,163.314 138.200 M240.901 140.200 C 240.905 141.080,240.987 141.393,241.083 140.895 C 241.179 140.398,241.175 139.678,241.075 139.295 C 240.975 138.913,240.896 139.320,240.901 140.200 M163.873 142.000 C 164.004 142.990,164.176 143.875,164.256 143.967 C 164.557 144.314,164.328 141.764,163.990 141.000 C 163.753 140.466,163.714 140.798,163.873 142.000 M164.458 146.800 C 164.472 148.536,165.524 152.947,165.556 151.400 C 165.573 150.520,165.333 148.990,165.021 148.000 C 164.709 147.010,164.456 146.470,164.458 146.800 M239.701 149.800 C 239.705 150.680,239.787 150.993,239.883 150.495 C 239.979 149.998,239.975 149.278,239.875 148.895 C 239.775 148.513,239.696 148.920,239.701 149.800 M181.400 149.156 C 180.340 149.331,181.257 149.433,184.116 149.459 C 186.490 149.481,188.380 149.453,188.316 149.399 C 187.983 149.111,182.780 148.929,181.400 149.156 M220.705 149.483 C 221.202 149.579,221.922 149.575,222.305 149.475 C 222.687 149.375,222.280 149.296,221.400 149.301 C 220.520 149.305,220.207 149.387,220.705 149.483 M225.905 149.483 C 226.402 149.579,227.122 149.575,227.505 149.475 C 227.887 149.375,227.480 149.296,226.600 149.301 C 225.720 149.305,225.407 149.387,225.905 149.483 M172.996 152.267 C 171.458 153.294,169.865 154.509,169.456 154.967 C 169.047 155.425,168.102 156.507,167.356 157.372 L 166.000 158.944 165.944 156.972 L 165.887 155.000 165.611 157.000 C 165.460 158.100,164.833 159.867,164.218 160.927 C 163.289 162.531,163.177 163.000,163.553 163.727 C 163.999 164.590,164.002 164.590,163.790 163.746 C 163.558 162.825,164.335 160.713,164.800 161.000 C 164.955 161.096,165.677 160.325,166.403 159.287 C 168.977 155.608,171.554 153.305,175.394 151.252 C 176.271 150.783,176.719 150.400,176.390 150.400 C 176.061 150.400,174.533 151.240,172.996 152.267 M191.633 150.541 C 192.235 151.052,196.400 153.555,196.400 153.406 C 196.400 153.125,192.264 150.400,191.839 150.400 C 191.634 150.400,191.542 150.464,191.633 150.541 M213.600 151.816 C 210.032 154.078,204.778 159.802,204.808 161.395 C 204.812 161.618,205.371 160.900,206.051 159.800 C 208.200 156.320,212.936 152.083,216.093 150.815 C 216.592 150.615,216.730 150.444,216.400 150.436 C 216.070 150.427,214.810 151.048,213.600 151.816 M232.606 151.250 C 233.483 151.717,234.695 152.449,235.300 152.877 C 235.905 153.305,236.400 153.557,236.400 153.438 C 236.400 153.048,232.226 150.400,231.611 150.400 C 231.282 150.400,231.729 150.782,232.606 151.250 M239.632 153.553 C 239.599 154.124,241.110 156.800,241.465 156.800 C 241.575 156.800,241.313 156.215,240.883 155.500 C 240.452 154.785,240.002 153.930,239.882 153.600 C 239.714 153.140,239.656 153.129,239.632 153.553 M198.460 155.443 C 200.312 157.392,203.200 161.604,203.200 162.357 C 203.200 163.110,203.912 163.188,204.455 162.496 C 204.939 161.877,204.927 161.857,204.349 162.308 C 203.805 162.733,203.659 162.700,203.465 162.108 C 202.736 159.887,198.847 154.744,197.200 153.822 C 196.870 153.637,197.437 154.367,198.460 155.443 M238.781 155.800 C 241.674 159.017,241.867 159.199,240.898 157.800 C 240.441 157.140,239.292 155.880,238.345 155.000 C 236.885 153.643,236.951 153.765,238.781 155.800 M242.382 158.731 C 242.646 159.243,242.760 159.928,242.635 160.252 C 242.490 160.630,242.575 160.739,242.873 160.555 C 243.175 160.368,243.254 160.483,243.099 160.886 C 242.969 161.225,243.007 161.659,243.183 161.851 C 243.359 162.043,243.709 162.845,243.961 163.633 C 244.212 164.422,244.651 165.067,244.936 165.067 C 245.458 165.067,243.151 159.058,242.299 158.200 C 242.081 157.980,242.118 158.219,242.382 158.731 M162.558 164.700 C 162.439 165.085,162.085 165.991,161.771 166.714 C 161.040 168.395,161.046 168.757,161.787 167.776 C 162.355 167.026,162.376 167.033,162.433 168.000 C 162.480 168.804,162.551 168.726,162.792 167.600 C 162.957 166.830,163.223 165.840,163.384 165.400 C 163.627 164.734,163.597 164.700,163.203 165.200 C 162.809 165.700,162.763 165.650,162.928 164.900 C 163.160 163.840,162.872 163.685,162.558 164.700 M161.850 170.450 C 161.537 172.015,161.593 176.693,161.940 177.924 C 162.083 178.432,162.200 176.677,162.200 174.024 C 162.200 168.674,162.202 168.691,161.850 170.450 M245.686 173.840 C 245.639 176.502,245.399 179.257,245.154 179.961 C 244.908 180.665,244.806 181.340,244.927 181.461 C 245.502 182.035,246.013 177.954,245.899 173.710 L 245.772 169.000 245.686 173.840 M248.232 174.151 C 248.355 175.005,248.918 176.715,249.483 177.951 C 253.636 187.045,252.243 211.021,246.796 224.200 C 246.524 224.860,246.167 225.760,246.005 226.200 C 245.163 228.481,241.461 235.655,240.225 237.400 C 239.446 238.500,238.184 240.308,237.421 241.417 C 235.775 243.807,232.356 247.093,230.398 248.166 C 229.629 248.587,228.324 249.532,227.499 250.266 C 226.673 250.999,225.831 251.600,225.627 251.600 C 225.424 251.600,224.964 251.893,224.607 252.251 C 224.083 252.775,223.000 252.911,219.045 252.951 C 214.206 252.999,214.119 253.016,213.167 254.107 C 212.635 254.716,211.300 255.798,210.200 256.511 L 208.200 257.807 208.082 260.252 C 207.879 264.468,213.059 268.536,214.893 265.600 C 215.168 265.160,215.793 264.800,216.282 264.800 C 216.771 264.800,217.365 265.160,217.600 265.600 C 217.880 266.124,218.438 266.400,219.214 266.400 C 219.867 266.400,220.760 266.040,221.200 265.600 C 221.640 265.160,222.230 264.800,222.511 264.800 C 222.792 264.800,223.330 265.160,223.707 265.600 C 224.967 267.072,228.800 266.169,228.800 264.400 C 228.800 264.011,229.250 263.397,229.800 263.037 C 231.091 262.191,231.209 259.694,230.010 258.609 C 229.576 258.216,229.121 257.581,229.000 257.198 C 228.878 256.816,227.959 255.984,226.957 255.351 L 225.135 254.200 243.668 253.994 L 262.200 253.788 243.700 253.694 C 225.498 253.602,225.200 253.587,225.200 252.800 C 225.200 252.360,225.349 252.000,225.530 252.000 C 225.712 252.000,226.906 251.188,228.184 250.196 C 229.462 249.203,232.148 247.571,234.154 246.569 C 249.545 238.879,258.433 227.993,261.398 213.200 C 262.489 207.758,262.183 203.559,260.059 194.800 C 259.221 191.345,254.803 183.806,251.315 179.879 C 249.914 178.302,249.481 177.442,248.556 174.400 C 248.013 172.615,248.010 172.613,248.232 174.151 M158.872 176.413 C 158.582 177.836,158.206 179.630,158.036 180.400 C 157.867 181.170,156.660 183.600,155.353 185.800 C 149.010 196.482,147.104 212.045,151.218 219.559 C 151.411 219.912,152.081 221.460,152.707 223.000 C 155.425 229.691,162.447 237.655,170.013 242.628 C 172.310 244.138,174.870 245.988,175.703 246.740 C 176.535 247.492,177.119 247.859,177.001 247.554 C 176.882 247.249,176.323 246.640,175.757 246.200 C 172.252 243.471,167.200 237.837,167.200 236.656 C 167.200 236.523,166.522 235.286,165.693 233.907 C 164.864 232.528,163.444 229.690,162.538 227.600 C 160.170 222.143,159.028 218.222,157.179 209.200 C 155.788 202.412,155.902 185.630,157.354 183.414 C 158.088 182.293,159.690 175.830,159.522 174.667 C 159.455 174.204,159.162 174.990,158.872 176.413 M162.601 180.717 C 162.719 181.662,162.972 182.742,163.164 183.117 C 163.357 183.493,163.720 184.318,163.972 184.952 C 164.224 185.585,164.539 185.994,164.672 185.861 C 164.805 185.728,164.734 185.390,164.515 185.110 C 164.295 184.829,163.982 184.150,163.820 183.600 C 163.657 183.050,163.268 181.790,162.955 180.800 L 162.386 179.000 162.601 180.717 M244.033 183.872 C 242.527 188.067,239.366 192.196,235.457 195.073 C 234.167 196.023,233.243 196.800,233.402 196.800 C 235.921 196.800,245.460 184.979,244.723 182.770 C 244.645 182.535,244.334 183.031,244.033 183.872 M164.836 186.600 C 164.863 187.084,165.713 188.415,167.667 191.034 C 168.953 192.758,173.813 196.800,174.601 196.800 C 174.759 196.800,173.827 196.019,172.529 195.064 C 170.151 193.313,167.278 190.182,165.680 187.600 C 165.203 186.830,164.824 186.380,164.836 186.600 M178.604 198.406 C 178.738 198.623,179.407 198.800,180.090 198.800 C 181.601 198.800,181.449 198.600,179.680 198.263 C 178.855 198.106,178.452 198.160,178.604 198.406 M228.200 198.400 C 227.429 198.731,227.431 198.745,228.276 198.772 C 228.758 198.787,229.264 198.620,229.400 198.400 C 229.692 197.927,229.301 197.927,228.200 198.400 M183.298 199.100 C 183.351 199.265,182.401 200.390,181.187 201.600 C 179.972 202.810,178.658 204.340,178.266 205.000 L 177.553 206.200 178.405 205.200 C 178.873 204.650,180.442 202.985,181.890 201.500 C 183.564 199.783,184.282 198.800,183.861 198.800 C 183.498 198.800,183.244 198.935,183.298 199.100 M229.033 201.201 C 232.439 204.838,233.800 206.705,235.192 209.648 C 235.856 211.052,236.400 211.969,236.400 211.687 C 236.401 209.860,232.312 203.946,228.737 200.601 C 226.629 198.630,226.633 198.638,229.033 201.201 M176.945 206.900 C 176.187 207.973,175.130 210.063,175.272 210.206 C 175.355 210.288,175.923 209.466,176.534 208.378 C 177.553 206.566,177.794 205.698,176.945 206.900 M236.634 212.765 C 236.796 213.076,237.061 213.886,237.223 214.565 C 237.494 215.700,237.521 215.718,237.559 214.776 C 237.582 214.214,237.317 213.404,236.970 212.976 C 236.624 212.549,236.473 212.454,236.634 212.765 M173.633 214.300 C 173.341 215.184,173.200 216.153,173.320 216.454 C 173.443 216.763,173.551 216.598,173.568 216.074 C 173.586 215.564,173.792 214.789,174.026 214.352 C 174.260 213.914,174.387 213.361,174.308 213.124 C 174.229 212.886,173.925 213.415,173.633 214.300 M237.888 218.000 C 238.011 219.210,238.177 220.275,238.256 220.367 C 238.553 220.711,238.330 217.367,238.004 216.600 C 237.792 216.102,237.749 216.631,237.888 218.000 M172.650 218.850 C 172.327 220.464,172.377 224.800,172.728 225.684 C 172.878 226.060,173.000 224.395,173.001 221.984 C 173.002 217.107,173.001 217.096,172.650 218.850 M238.064 224.800 C 238.023 225.570,237.889 226.650,237.767 227.200 C 237.576 228.058,237.609 228.100,237.995 227.495 C 238.243 227.107,238.377 226.027,238.293 225.095 C 238.151 223.527,238.134 223.505,238.064 224.800 M173.241 228.254 C 173.218 228.724,173.480 229.714,173.822 230.454 C 174.437 231.785,174.404 231.497,173.611 228.600 C 173.362 227.694,173.272 227.609,173.241 228.254 M236.930 230.263 C 236.671 231.104,236.521 231.855,236.597 231.930 C 236.896 232.230,237.643 230.311,237.525 229.546 C 237.435 228.958,237.270 229.156,236.930 230.263 M174.416 232.051 C 174.177 235.813,183.928 246.381,190.146 249.099 C 192.351 250.063,191.773 249.585,188.494 247.733 C 182.884 244.564,178.615 240.064,175.634 234.174 C 174.973 232.868,174.425 231.913,174.416 232.051 M235.685 233.373 C 235.015 234.844,235.078 235.152,235.830 234.079 C 236.176 233.584,236.395 232.984,236.315 232.744 C 236.235 232.505,235.952 232.788,235.685 233.373 M233.000 238.279 C 230.497 242.033,227.454 244.831,222.955 247.513 C 219.566 249.533,218.700 250.289,221.320 248.941 C 226.561 246.244,232.157 241.034,234.728 236.461 C 235.888 234.396,234.885 235.452,233.000 238.279 M178.600 249.166 C 179.656 250.313,181.200 251.461,181.200 251.099 C 181.200 251.028,180.345 250.270,179.300 249.416 C 177.553 247.988,177.497 247.968,178.600 249.166 M192.431 249.994 C 194.683 251.311,201.550 252.799,205.376 252.800 C 209.414 252.800,217.103 251.170,218.800 249.955 C 219.448 249.490,219.548 249.465,216.142 250.634 C 209.583 252.886,200.939 252.794,194.406 250.403 C 192.035 249.535,191.436 249.411,192.431 249.994 M182.100 251.856 C 183.621 253.610,183.770 253.595,163.500 253.694 L 144.200 253.788 163.377 253.994 L 182.554 254.200 181.246 255.300 C 180.527 255.905,179.748 256.400,179.515 256.400 C 178.184 256.400,177.212 258.422,177.353 260.901 C 177.586 265.020,182.146 268.108,184.293 265.600 C 184.670 265.160,185.180 264.800,185.427 264.800 C 185.674 264.800,186.202 265.160,186.600 265.600 C 187.554 266.655,189.502 266.632,190.651 265.552 L 191.553 264.705 192.630 265.552 C 194.456 266.989,198.400 266.087,198.400 264.233 C 198.400 263.953,198.760 263.398,199.200 263.000 C 199.684 262.562,200.000 261.768,200.000 260.992 C 200.000 260.286,199.640 259.250,199.200 258.691 C 198.760 258.131,198.400 257.383,198.400 257.027 C 198.400 256.671,197.905 256.193,197.300 255.963 C 196.695 255.734,195.840 255.241,195.400 254.868 C 193.351 253.130,192.169 252.800,188.000 252.800 C 184.457 252.800,183.758 252.685,182.662 251.924 C 181.502 251.120,181.457 251.114,182.100 251.856 M192.920 254.259 C 193.624 254.622,194.757 255.342,195.438 255.859 C 196.119 256.377,196.839 256.807,197.038 256.816 C 197.237 256.824,197.834 257.723,198.365 258.814 C 199.393 260.925,199.428 260.645,197.748 263.722 C 196.748 265.554,193.968 265.966,193.015 264.425 C 192.624 263.792,190.571 263.912,190.000 264.600 C 189.726 264.930,189.096 265.200,188.600 265.200 C 188.104 265.200,187.474 264.930,187.200 264.600 C 186.538 263.803,184.843 263.837,183.926 264.667 C 181.681 266.699,178.000 264.050,178.000 260.401 C 178.000 258.413,178.024 258.374,180.100 257.039 C 181.255 256.296,182.636 255.218,183.170 254.644 C 184.392 253.328,190.634 253.082,192.920 254.259 M223.720 254.256 C 224.424 254.617,225.509 255.337,226.131 255.856 C 226.753 256.375,227.473 256.807,227.731 256.816 C 229.044 256.859,230.523 262.400,229.222 262.400 C 229.043 262.400,228.680 262.925,228.414 263.566 C 227.670 265.362,225.861 265.943,224.393 264.858 C 222.921 263.770,221.874 263.774,220.387 264.873 L 219.207 265.746 218.277 264.873 C 217.105 263.771,215.445 263.755,214.365 264.835 C 212.427 266.773,208.800 263.972,208.800 260.536 L 208.800 258.430 211.100 256.864 C 212.365 256.002,213.743 254.915,214.162 254.449 C 215.170 253.327,221.652 253.196,223.720 254.256 M262.101 257.800 C 262.105 258.680,262.187 258.993,262.283 258.495 C 262.379 257.998,262.375 257.278,262.275 256.895 C 262.175 256.513,262.096 256.920,262.101 257.800 M144.101 258.200 C 144.105 259.080,144.187 259.393,144.283 258.895 C 144.379 258.398,144.375 257.678,144.275 257.295 C 144.175 256.913,144.096 257.320,144.101 258.200 M154.321 267.099 C 156.588 267.170,160.188 267.170,162.321 267.098 C 164.455 267.026,162.600 266.968,158.200 266.968 C 153.800 266.968,152.055 267.027,154.321 267.099 M182.300 267.099 C 185.215 267.167,189.985 267.167,192.900 267.099 C 195.815 267.031,193.430 266.975,187.600 266.975 C 181.770 266.975,179.385 267.031,182.300 267.099 M210.480 267.098 C 212.394 267.171,215.634 267.171,217.680 267.098 C 219.726 267.026,218.160 266.966,214.200 266.965 C 210.240 266.965,208.566 267.024,210.480 267.098 M224.311 267.093 C 225.251 267.178,226.691 267.177,227.511 267.091 C 228.330 267.005,227.560 266.936,225.800 266.937 C 224.040 266.939,223.370 267.009,224.311 267.093 M239.125 267.099 C 242.714 267.166,248.474 267.166,251.925 267.099 C 255.376 267.033,252.440 266.978,245.400 266.978 C 238.360 266.979,235.536 267.033,239.125 267.099 " stroke="none" fill="#804924" fill-rule="evenodd"></path><path id="path3" d="M199.360 183.031 C 192.310 186.739,192.072 188.974,198.078 195.061 C 204.082 201.147,203.815 201.147,209.881 195.081 C 216.150 188.811,216.174 187.936,210.177 184.075 C 206.173 181.497,202.879 181.179,199.360 183.031 M183.170 254.644 C 182.636 255.218,181.255 256.296,180.100 257.039 C 178.024 258.374,178.000 258.413,178.000 260.401 C 178.000 264.050,181.681 266.699,183.926 264.667 C 184.843 263.837,186.538 263.803,187.200 264.600 C 187.474 264.930,188.104 265.200,188.600 265.200 C 189.096 265.200,189.726 264.930,190.000 264.600 C 190.571 263.912,192.624 263.792,193.015 264.425 C 193.968 265.966,196.748 265.554,197.748 263.722 C 199.428 260.645,199.393 260.925,198.365 258.814 C 197.834 257.723,197.237 256.824,197.038 256.816 C 196.839 256.807,196.119 256.377,195.438 255.859 C 191.935 253.197,185.139 252.524,183.170 254.644 M214.162 254.449 C 213.743 254.915,212.365 256.002,211.100 256.864 L 208.800 258.430 208.800 260.536 C 208.800 263.972,212.427 266.773,214.365 264.835 C 215.445 263.755,217.105 263.771,218.277 264.873 L 219.207 265.746 220.387 264.873 C 221.874 263.774,222.921 263.770,224.393 264.858 C 225.861 265.943,227.670 265.362,228.414 263.566 C 228.680 262.925,229.043 262.400,229.222 262.400 C 230.523 262.400,229.044 256.859,227.731 256.816 C 227.473 256.807,226.753 256.375,226.131 255.856 C 223.154 253.371,215.896 252.518,214.162 254.449 " stroke="none" fill="#ee7f23" fill-rule="evenodd"></path><path id="path4" d="M183.564 164.733 C 183.214 165.100,182.367 165.850,181.681 166.400 C 180.995 166.950,180.426 167.616,180.417 167.880 C 180.408 168.144,180.156 168.504,179.858 168.680 C 178.032 169.759,178.041 178.647,179.871 180.831 C 180.162 181.179,180.400 181.592,180.400 181.749 C 180.400 182.169,182.043 183.759,183.242 184.499 C 184.944 185.550,189.566 185.565,191.020 184.524 C 196.831 180.363,197.491 171.244,192.340 166.300 L 189.943 164.000 187.072 164.033 C 184.945 164.058,184.035 164.240,183.564 164.733 M215.600 164.467 C 215.600 164.663,214.957 165.389,214.170 166.080 C 211.348 168.558,209.548 177.710,211.500 179.660 C 211.775 179.935,212.000 180.410,212.000 180.716 C 212.000 181.413,214.796 184.400,215.449 184.400 C 215.715 184.400,216.005 184.615,216.093 184.878 C 216.734 186.801,223.780 184.920,225.463 182.377 C 226.037 181.509,226.639 180.800,226.801 180.800 C 228.020 180.800,228.545 172.679,227.474 170.400 C 226.266 167.829,224.194 165.200,223.377 165.200 C 223.107 165.200,222.778 164.921,222.647 164.579 C 222.381 163.885,215.600 163.777,215.600 164.467 M189.846 165.165 C 192.643 166.435,194.794 169.965,195.097 173.782 C 195.942 184.423,184.795 189.188,180.320 180.099 C 176.266 171.863,182.629 161.888,189.846 165.165 M223.010 165.729 C 225.915 167.703,227.933 172.327,227.453 175.906 C 225.758 188.526,211.428 187.537,211.428 174.800 C 211.428 166.895,217.606 162.057,223.010 165.729 " stroke="none" fill="#adc8d0" fill-rule="evenodd"></path><path id="path5" d="M208.100 115.852 C 209.236 116.187,208.912 117.735,207.400 119.200 C 206.630 119.946,206.000 120.717,206.000 120.912 C 206.000 121.107,206.728 120.487,207.617 119.534 C 209.408 117.612,209.675 115.875,208.200 115.726 C 207.576 115.664,207.554 115.691,208.100 115.852 M202.015 118.481 C 201.127 119.405,200.414 120.440,200.432 120.781 C 200.459 121.318,200.492 121.320,200.680 120.800 C 200.799 120.470,201.632 119.435,202.531 118.500 C 203.431 117.565,204.046 116.800,203.898 116.800 C 203.750 116.800,202.903 117.556,202.015 118.481 M212.867 121.550 C 212.505 121.779,212.699 121.883,213.467 121.872 C 214.090 121.863,214.960 122.002,215.400 122.181 L 216.200 122.508 215.400 121.867 C 214.506 121.150,213.664 121.045,212.867 121.550 M192.495 121.866 C 192.218 121.978,191.791 122.459,191.546 122.935 C 191.108 123.787,191.115 123.786,191.966 122.900 C 192.985 121.840,192.973 121.842,194.338 122.554 C 198.351 124.646,198.332 124.641,198.999 123.787 C 200.213 122.232,200.463 121.429,199.317 122.766 C 198.017 124.281,198.508 124.333,194.538 122.259 C 193.844 121.897,193.214 121.614,193.138 121.632 C 193.062 121.649,192.773 121.755,192.495 121.866 M207.970 124.700 L 207.000 125.800 208.200 124.800 C 208.860 124.250,209.475 123.755,209.567 123.700 C 209.658 123.645,209.555 123.600,209.336 123.600 C 209.118 123.600,208.503 124.095,207.970 124.700 M213.933 126.700 C 212.880 127.841,212.096 129.435,212.805 128.997 C 213.022 128.863,213.200 128.548,213.200 128.298 C 213.200 128.048,213.684 127.339,214.275 126.722 C 214.866 126.105,215.260 125.600,215.150 125.600 C 215.040 125.600,214.492 126.095,213.933 126.700 M192.367 126.937 C 192.940 127.650,194.400 128.587,194.400 128.241 C 194.400 128.139,193.815 127.644,193.100 127.143 C 192.178 126.496,191.965 126.436,192.367 126.937 M195.724 130.259 C 196.284 130.921,196.329 131.165,195.924 131.327 C 195.573 131.468,195.557 131.547,195.876 131.568 C 196.774 131.628,196.781 130.907,195.891 130.153 L 195.000 129.400 195.724 130.259 M163.144 131.232 L 162.200 132.064 163.189 131.432 C 164.504 130.592,165.958 130.635,168.472 131.591 C 171.194 132.625,171.417 132.363,168.756 131.257 C 166.142 130.171,164.358 130.163,163.144 131.232 M236.600 131.052 C 235.579 131.551,235.549 131.604,236.400 131.404 C 240.075 130.541,241.721 130.866,242.422 132.593 C 242.681 133.231,242.755 133.259,242.775 132.729 C 242.847 130.824,239.131 129.814,236.600 131.052 M161.867 132.667 C 161.525 133.008,161.591 135.501,161.976 136.800 C 162.168 137.449,162.259 136.853,162.236 135.103 C 162.216 133.620,162.185 132.405,162.167 132.403 C 162.148 132.401,162.013 132.520,161.867 132.667 M187.731 134.221 C 187.032 134.527,186.357 134.946,186.229 135.153 C 186.032 135.473,189.084 134.191,189.567 133.752 C 189.909 133.440,188.958 133.684,187.731 134.221 M218.433 133.752 C 218.911 134.187,221.969 135.474,221.774 135.158 C 221.648 134.955,220.906 134.521,220.124 134.194 C 218.735 133.614,218.099 133.447,218.433 133.752 M177.200 134.686 C 177.530 134.808,178.160 135.093,178.600 135.320 C 179.315 135.687,179.342 135.660,178.851 135.065 C 178.549 134.699,177.919 134.414,177.451 134.432 C 176.867 134.453,176.788 134.533,177.200 134.686 M226.042 134.834 C 225.515 135.045,225.173 135.306,225.281 135.415 C 225.390 135.523,226.091 135.347,226.839 135.022 C 228.321 134.379,227.603 134.210,226.042 134.834 M181.000 136.178 C 181.880 136.513,182.960 136.772,183.400 136.753 C 183.854 136.733,183.595 136.553,182.800 136.337 C 180.227 135.636,179.383 135.561,181.000 136.178 M222.900 135.876 C 223.285 135.976,223.915 135.976,224.300 135.876 C 224.685 135.775,224.370 135.693,223.600 135.693 C 222.830 135.693,222.515 135.775,222.900 135.876 M242.514 137.400 C 242.517 138.500,242.595 138.903,242.687 138.295 C 242.779 137.686,242.777 136.786,242.682 136.295 C 242.587 135.803,242.511 136.300,242.514 137.400 M162.514 139.800 C 162.517 140.900,162.595 141.303,162.687 140.695 C 162.779 140.086,162.777 139.186,162.682 138.695 C 162.587 138.203,162.511 138.700,162.514 139.800 M241.709 142.800 C 241.709 143.790,241.787 144.195,241.882 143.700 C 241.978 143.205,241.978 142.395,241.882 141.900 C 241.787 141.405,241.709 141.810,241.709 142.800 M162.806 143.433 C 162.809 144.075,162.996 144.870,163.221 145.200 C 163.514 145.630,163.554 145.346,163.362 144.200 C 163.030 142.216,162.798 141.896,162.806 143.433 M163.714 148.600 C 163.717 149.700,163.795 150.103,163.887 149.495 C 163.979 148.886,163.977 147.986,163.882 147.495 C 163.787 147.003,163.711 147.500,163.714 148.600 M182.707 150.290 C 183.426 150.379,184.506 150.377,185.107 150.286 C 185.708 150.195,185.120 150.122,183.800 150.124 C 182.480 150.126,181.988 150.201,182.707 150.290 M222.700 150.289 C 223.415 150.378,224.585 150.378,225.300 150.289 C 226.015 150.201,225.430 150.128,224.000 150.128 C 222.570 150.128,221.985 150.201,222.700 150.289 M240.432 151.876 C 240.414 152.798,240.542 153.641,240.716 153.748 C 240.890 153.856,240.967 153.282,240.887 152.472 C 240.669 150.258,240.467 149.995,240.432 151.876 M164.501 154.600 C 164.505 155.480,164.587 155.793,164.683 155.295 C 164.779 154.798,164.775 154.078,164.675 153.695 C 164.575 153.313,164.496 153.720,164.501 154.600 M211.277 155.059 L 209.400 156.918 211.400 155.191 C 212.500 154.241,213.475 153.404,213.567 153.332 C 213.658 153.259,213.603 153.200,213.443 153.200 C 213.284 153.200,212.309 154.037,211.277 155.059 M234.400 153.325 C 234.400 153.424,235.061 154.009,235.868 154.625 C 236.676 155.241,237.211 155.541,237.056 155.291 C 236.740 154.779,234.400 153.047,234.400 153.325 M169.769 156.467 C 168.466 157.823,167.581 158.858,167.801 158.767 C 168.267 158.573,172.609 154.000,172.327 154.000 C 172.223 154.000,171.072 155.110,169.769 156.467 M197.600 156.125 C 197.600 156.194,198.185 156.779,198.900 157.425 L 200.200 158.600 199.025 157.300 C 197.930 156.088,197.600 155.816,197.600 156.125 M237.600 156.125 C 237.600 156.194,238.185 156.779,238.900 157.425 L 240.200 158.600 239.025 157.300 C 237.930 156.088,237.600 155.816,237.600 156.125 M215.611 157.895 C 208.233 160.499,204.951 171.619,208.910 180.600 C 209.395 181.700,209.973 182.720,210.196 182.868 C 212.725 184.543,214.800 186.231,214.800 186.615 C 214.800 188.598,222.616 187.919,225.600 185.677 C 237.993 176.362,229.581 152.964,215.611 157.895 M183.554 159.352 C 174.277 162.667,171.637 177.807,179.010 185.413 C 182.401 188.911,186.897 190.173,190.544 188.649 C 191.391 188.295,192.246 188.105,192.442 188.226 C 192.639 188.348,192.800 188.128,192.800 187.738 C 192.800 187.349,193.765 186.117,194.945 185.001 C 205.251 175.256,196.183 154.839,183.554 159.352 M201.400 161.200 C 201.741 161.860,202.111 162.400,202.221 162.400 C 202.331 162.400,202.141 161.860,201.800 161.200 C 201.459 160.540,201.089 160.000,200.979 160.000 C 200.869 160.000,201.059 160.540,201.400 161.200 M163.067 160.700 C 162.551 161.557,161.613 164.143,161.942 163.800 C 162.376 163.347,163.643 160.400,163.403 160.400 C 163.317 160.400,163.166 160.535,163.067 160.700 M244.828 161.400 C 244.828 161.620,245.086 162.250,245.400 162.800 C 245.714 163.350,245.972 163.620,245.972 163.400 C 245.972 163.180,245.714 162.550,245.400 162.000 C 245.086 161.450,244.828 161.180,244.828 161.400 M242.000 162.078 C 242.000 162.205,242.269 162.824,242.598 163.454 C 242.926 164.084,243.190 164.330,243.185 164.000 C 243.179 163.670,242.910 163.051,242.587 162.624 C 242.264 162.196,242.000 161.951,242.000 162.078 M164.885 163.773 C 164.215 165.244,164.278 165.552,165.030 164.479 C 165.376 163.984,165.595 163.384,165.515 163.144 C 165.435 162.905,165.152 163.188,164.885 163.773 M204.346 164.016 C 203.766 164.667,203.424 165.200,203.584 165.200 C 203.893 165.200,204.885 164.140,205.363 163.300 C 205.815 162.505,205.481 162.740,204.346 164.016 M192.340 166.300 C 197.491 171.244,196.831 180.363,191.020 184.524 C 189.566 185.565,184.944 185.550,183.242 184.499 C 182.043 183.759,180.400 182.169,180.400 181.749 C 180.400 181.592,180.162 181.179,179.871 180.831 C 178.041 178.647,178.032 169.759,179.858 168.680 C 180.156 168.504,180.408 168.144,180.417 167.880 C 180.426 167.616,180.995 166.950,181.681 166.400 C 182.367 165.850,183.214 165.100,183.564 164.733 C 184.035 164.240,184.945 164.058,187.072 164.033 L 189.943 164.000 192.340 166.300 M222.647 164.579 C 222.778 164.921,223.107 165.200,223.377 165.200 C 224.194 165.200,226.266 167.829,227.474 170.400 C 228.545 172.679,228.020 180.800,226.801 180.800 C 226.639 180.800,226.037 181.509,225.463 182.377 C 223.780 184.920,216.734 186.801,216.093 184.878 C 216.005 184.615,215.715 184.400,215.449 184.400 C 214.796 184.400,212.000 181.413,212.000 180.716 C 212.000 180.410,211.775 179.935,211.500 179.660 C 209.548 177.710,211.348 168.558,214.170 166.080 C 214.957 165.389,215.600 164.663,215.600 164.467 C 215.600 163.777,222.381 163.885,222.647 164.579 M246.487 165.277 C 247.201 167.325,247.995 168.716,247.998 167.924 C 247.999 167.552,247.834 167.145,247.631 167.019 C 247.428 166.894,247.144 166.255,247.000 165.600 C 246.856 164.945,246.580 164.311,246.385 164.191 C 246.191 164.071,246.237 164.560,246.487 165.277 M160.865 165.817 C 160.609 166.378,160.407 167.054,160.416 167.319 C 160.424 167.583,160.697 167.188,161.022 166.439 C 161.705 164.865,161.561 164.290,160.865 165.817 M188.195 167.497 C 190.484 167.730,191.875 169.688,190.400 170.600 C 190.180 170.736,190.000 171.051,190.000 171.300 C 190.000 171.549,190.264 171.404,190.587 170.976 C 192.023 169.078,190.770 167.156,188.169 167.267 L 186.600 167.334 188.195 167.497 M163.309 169.600 C 163.309 170.590,163.387 170.995,163.482 170.500 C 163.578 170.005,163.578 169.195,163.482 168.700 C 163.387 168.205,163.309 168.610,163.309 169.600 M215.467 168.267 C 215.013 168.721,215.197 170.162,215.813 170.976 C 216.136 171.404,216.400 171.549,216.400 171.300 C 216.400 171.051,216.203 170.725,215.962 170.576 C 215.720 170.427,215.599 169.787,215.692 169.153 C 215.875 167.905,215.866 167.868,215.467 168.267 M248.006 169.433 C 248.009 169.855,248.195 170.470,248.418 170.800 C 248.715 171.238,248.752 171.076,248.556 170.200 C 248.227 168.729,247.998 168.410,248.006 169.433 M159.112 170.800 C 158.976 171.350,158.750 172.250,158.610 172.800 C 158.452 173.422,158.597 173.279,158.992 172.421 C 159.342 171.662,159.568 170.762,159.494 170.421 C 159.410 170.031,159.268 170.172,159.112 170.800 M244.928 174.000 C 244.928 175.430,245.001 176.015,245.089 175.300 C 245.178 174.585,245.178 173.415,245.089 172.700 C 245.001 171.985,244.928 172.570,244.928 174.000 M157.850 175.650 C 157.517 177.317,157.840 177.640,158.200 176.000 C 158.352 175.309,158.393 174.659,158.291 174.558 C 158.189 174.456,157.991 174.947,157.850 175.650 M163.309 178.400 C 163.309 179.390,163.387 179.795,163.482 179.300 C 163.578 178.805,163.578 177.995,163.482 177.500 C 163.387 177.005,163.309 177.410,163.309 178.400 M157.293 178.800 C 157.293 179.570,157.375 179.885,157.476 179.500 C 157.576 179.115,157.576 178.485,157.476 178.100 C 157.375 177.715,157.293 178.030,157.293 178.800 M163.628 180.676 C 163.718 181.715,164.344 182.596,164.372 181.724 C 164.387 181.242,164.220 180.736,164.000 180.600 C 163.780 180.464,163.613 180.498,163.628 180.676 M164.414 183.024 C 164.439 183.694,165.572 185.430,165.573 184.800 C 165.574 184.470,165.310 183.851,164.987 183.424 C 164.664 182.996,164.406 182.816,164.414 183.024 M179.600 197.421 C 180.590 197.733,181.670 197.972,182.000 197.952 C 182.826 197.903,179.594 196.862,178.600 196.857 C 178.160 196.855,178.610 197.109,179.600 197.421 M227.577 197.179 C 224.216 198.199,224.195 198.508,227.300 201.147 L 229.800 203.271 227.661 201.225 C 225.147 198.821,225.199 198.337,228.064 197.494 C 229.239 197.148,229.840 196.865,229.400 196.867 C 228.960 196.868,228.139 197.009,227.577 197.179 M184.300 198.289 C 185.843 198.481,185.879 198.634,184.700 199.962 C 183.948 200.809,183.931 200.879,184.600 200.388 C 186.537 198.965,186.494 197.979,184.500 198.064 C 183.023 198.127,183.020 198.131,184.300 198.289 M262.531 203.000 C 262.533 204.540,262.605 205.121,262.692 204.291 C 262.779 203.461,262.777 202.201,262.689 201.491 C 262.600 200.781,262.529 201.460,262.531 203.000 M148.093 203.200 C 148.093 203.970,148.175 204.285,148.276 203.900 C 148.376 203.515,148.376 202.885,148.276 202.500 C 148.175 202.115,148.093 202.430,148.093 203.200 M180.757 203.700 C 180.080 204.268,179.025 205.600,179.252 205.600 C 179.335 205.600,179.912 205.060,180.535 204.400 C 181.700 203.166,181.811 202.816,180.757 203.700 M232.255 206.600 C 232.867 207.480,233.420 208.275,233.484 208.367 C 233.548 208.458,233.600 208.362,233.600 208.152 C 233.600 207.942,233.047 207.147,232.371 206.385 L 231.142 205.000 232.255 206.600 M262.524 210.600 C 262.526 211.920,262.601 212.412,262.690 211.693 C 262.779 210.974,262.777 209.894,262.686 209.293 C 262.595 208.692,262.522 209.280,262.524 210.600 M148.093 210.400 C 148.093 211.170,148.175 211.485,148.276 211.100 C 148.376 210.715,148.376 210.085,148.276 209.700 C 148.175 209.315,148.093 209.630,148.093 210.400 M236.909 220.000 C 236.909 220.990,236.987 221.395,237.082 220.900 C 237.178 220.405,237.178 219.595,237.082 219.100 C 236.987 218.605,236.909 219.010,236.909 220.000 M173.731 222.200 C 173.733 223.740,173.805 224.321,173.892 223.491 C 173.979 222.661,173.977 221.401,173.889 220.691 C 173.800 219.981,173.729 220.660,173.731 222.200 M260.100 221.300 C 259.670 222.475,259.680 222.526,260.212 221.824 C 260.721 221.152,261.021 220.000,260.688 220.000 C 260.626 220.000,260.361 220.585,260.100 221.300 M236.901 224.600 C 236.905 225.480,236.987 225.793,237.083 225.295 C 237.179 224.798,237.175 224.078,237.075 223.695 C 236.975 223.313,236.896 223.720,236.901 224.600 M174.039 226.800 C 174.024 226.910,174.267 227.810,174.579 228.800 C 174.891 229.790,175.150 230.240,175.155 229.800 C 175.163 229.103,174.108 226.271,174.039 226.800 M234.865 232.617 C 234.195 234.088,234.323 234.402,235.047 233.065 C 235.386 232.440,235.588 231.854,235.496 231.763 C 235.405 231.671,235.121 232.056,234.865 232.617 M161.000 236.800 C 162.528 238.340,163.869 239.600,163.979 239.600 C 164.089 239.600,162.928 238.340,161.400 236.800 C 159.872 235.260,158.531 234.000,158.421 234.000 C 158.311 234.000,159.472 235.260,161.000 236.800 M178.039 236.976 C 178.501 237.759,178.956 238.400,179.050 238.400 C 179.334 238.400,178.036 236.069,177.602 235.801 C 177.380 235.664,177.577 236.193,178.039 236.976 M247.781 238.500 L 246.200 240.200 247.900 238.619 C 248.835 237.749,249.600 236.984,249.600 236.919 C 249.600 236.616,249.252 236.919,247.781 238.500 M179.200 238.910 C 179.200 238.971,180.595 240.366,182.300 242.010 L 185.400 245.000 182.410 241.900 C 179.633 239.021,179.200 238.617,179.200 238.910 M228.400 242.200 C 227.428 243.190,226.723 244.000,226.833 244.000 C 226.943 244.000,227.828 243.190,228.800 242.200 C 229.772 241.210,230.477 240.400,230.367 240.400 C 230.257 240.400,229.372 241.210,228.400 242.200 M185.600 244.950 C 185.600 245.044,186.241 245.499,187.024 245.961 C 187.807 246.423,188.336 246.620,188.199 246.398 C 187.931 245.964,185.600 244.666,185.600 244.950 M173.600 246.077 C 173.600 246.157,174.725 247.196,176.100 248.387 C 177.475 249.577,178.150 250.049,177.600 249.436 C 176.603 248.324,173.600 245.803,173.600 246.077 M230.800 249.236 C 230.136 249.779,230.069 249.915,230.600 249.640 C 231.905 248.966,232.628 248.412,232.200 248.415 C 231.980 248.417,231.350 248.786,230.800 249.236 M216.200 249.414 C 215.200 249.896,215.166 249.951,216.000 249.748 C 217.133 249.471,218.407 248.821,217.800 248.830 C 217.580 248.833,216.860 249.096,216.200 249.414 M197.000 250.400 C 198.101 250.873,198.492 250.873,198.200 250.400 C 198.064 250.180,197.558 250.013,197.076 250.028 C 196.231 250.055,196.229 250.069,197.000 250.400 M213.000 250.400 C 212.708 250.873,213.099 250.873,214.200 250.400 C 214.971 250.069,214.969 250.055,214.124 250.028 C 213.642 250.013,213.136 250.180,213.000 250.400 M179.980 251.567 L 181.360 252.792 162.586 252.896 C 144.960 252.994,143.807 253.043,143.746 253.708 C 143.701 254.203,143.738 254.233,143.870 253.808 C 144.035 253.276,146.363 253.200,162.606 253.200 C 172.991 253.200,181.249 253.044,181.372 252.845 C 181.493 252.649,180.919 252.006,180.096 251.416 L 178.600 250.342 179.980 251.567 M199.705 251.087 C 200.314 251.179,201.214 251.177,201.705 251.082 C 202.197 250.987,201.700 250.911,200.600 250.914 C 199.500 250.917,199.097 250.995,199.705 251.087 M209.500 251.082 C 209.995 251.178,210.805 251.178,211.300 251.082 C 211.795 250.987,211.390 250.909,210.400 250.909 C 209.410 250.909,209.005 250.987,209.500 251.082 M226.598 252.403 C 226.130 253.160,227.419 253.209,245.000 253.100 L 262.600 252.991 244.676 252.896 C 232.853 252.833,226.837 252.664,227.000 252.400 C 227.136 252.180,227.157 252.000,227.047 252.000 C 226.937 252.000,226.735 252.181,226.598 252.403 M148.500 267.476 C 148.885 267.576,149.515 267.576,149.900 267.476 C 150.285 267.375,149.970 267.293,149.200 267.293 C 148.430 267.293,148.115 267.375,148.500 267.476 " stroke="none" fill="#c8dce1" fill-rule="evenodd"></path><path id="path6" d="M204.862 116.595 C 203.417 117.391,200.800 120.089,200.801 120.781 C 200.802 121.122,201.165 120.806,201.608 120.079 C 202.051 119.353,203.310 118.201,204.407 117.520 C 205.503 116.838,206.400 116.217,206.400 116.140 C 206.400 115.894,205.827 116.063,204.862 116.595 M208.454 116.812 C 208.423 117.401,207.815 118.375,207.000 119.144 C 206.230 119.871,205.600 120.626,205.600 120.824 C 205.600 121.021,206.334 120.386,207.231 119.413 C 208.412 118.132,208.813 117.390,208.685 116.722 C 208.516 115.838,208.507 115.841,208.454 116.812 M199.639 123.024 C 198.420 124.804,198.747 124.829,194.409 122.636 C 193.020 121.934,193.015 121.934,192.109 122.988 C 190.838 124.465,190.870 124.545,194.000 127.773 C 196.820 130.682,197.217 131.365,196.300 131.735 C 195.992 131.859,196.060 131.949,196.476 131.968 C 197.971 132.038,197.509 131.053,194.624 128.025 C 191.300 124.536,191.277 124.487,192.337 123.178 C 193.041 122.309,193.119 122.298,194.027 122.934 C 194.550 123.300,195.225 123.600,195.526 123.600 C 195.827 123.600,196.531 123.960,197.091 124.400 C 198.447 125.467,198.493 125.452,199.741 123.546 C 201.055 121.539,200.966 121.088,199.639 123.024 M213.598 122.297 C 214.368 122.389,215.268 122.676,215.598 122.933 C 216.122 123.340,216.129 123.310,215.651 122.700 C 215.286 122.235,214.615 122.021,213.651 122.064 L 212.200 122.128 213.598 122.297 M209.900 123.516 C 209.075 124.112,208.096 125.050,207.723 125.600 C 207.254 126.294,207.598 126.110,208.850 125.000 C 209.841 124.120,211.001 123.186,211.426 122.924 C 211.852 122.661,212.020 122.444,211.800 122.440 C 211.580 122.436,210.725 122.920,209.900 123.516 M214.274 125.524 C 213.463 126.354,212.800 127.191,212.800 127.383 C 212.800 127.576,213.520 126.953,214.400 126.000 C 216.387 123.848,216.285 123.465,214.274 125.524 M212.032 128.739 C 210.933 130.794,213.187 134.146,214.671 132.663 C 214.790 132.543,214.283 132.290,213.544 132.100 C 212.065 131.719,211.488 130.099,212.428 128.966 C 212.695 128.644,212.813 128.280,212.689 128.156 C 212.566 128.033,212.270 128.295,212.032 128.739 M163.169 131.969 C 161.886 133.252,161.822 133.646,162.377 136.833 C 162.585 138.025,162.965 140.585,163.222 142.522 C 163.479 144.459,163.785 145.948,163.903 145.831 C 164.020 145.713,163.917 144.308,163.674 142.709 C 162.319 133.797,162.305 133.604,162.945 132.628 C 163.852 131.243,165.252 131.074,168.041 132.014 C 171.202 133.079,171.556 132.783,168.469 131.657 C 165.368 130.527,164.565 130.574,163.169 131.969 M236.257 131.614 C 235.189 132.020,234.214 132.453,234.091 132.576 C 233.733 132.934,234.744 132.835,235.505 132.437 C 237.975 131.149,240.283 131.106,241.700 132.323 C 242.085 132.653,242.400 132.755,242.400 132.548 C 242.400 131.024,239.124 130.525,236.257 131.614 M194.000 132.400 C 193.467 132.745,193.467 132.788,194.000 132.788 C 194.330 132.788,194.870 132.613,195.200 132.400 C 195.733 132.055,195.733 132.012,195.200 132.012 C 194.870 132.012,194.330 132.187,194.000 132.400 M171.200 132.946 C 171.200 133.027,172.595 133.579,174.300 134.174 C 176.005 134.768,177.713 135.422,178.095 135.627 C 178.477 135.832,179.017 135.995,179.295 135.988 C 179.934 135.972,178.681 135.233,177.271 134.794 C 176.682 134.610,175.213 134.086,174.006 133.630 C 171.849 132.814,171.200 132.656,171.200 132.946 M190.400 133.569 C 188.070 134.466,185.880 135.613,186.092 135.826 C 186.184 135.917,187.146 135.574,188.229 135.064 C 189.313 134.553,190.830 133.846,191.600 133.493 C 193.451 132.644,192.674 132.694,190.400 133.569 M216.400 133.509 C 220.801 135.578,221.756 135.978,221.917 135.816 C 222.015 135.718,221.039 135.155,219.748 134.565 C 218.456 133.975,217.087 133.336,216.705 133.146 C 216.323 132.956,215.783 132.812,215.505 132.826 C 215.227 132.840,215.630 133.147,216.400 133.509 M230.600 133.665 C 229.500 134.099,228.118 134.606,227.529 134.791 C 226.114 135.236,224.868 135.973,225.505 135.988 C 225.783 135.995,226.323 135.825,226.705 135.612 C 227.087 135.398,228.795 134.745,230.500 134.160 C 232.205 133.575,233.600 133.030,233.600 132.948 C 233.600 132.646,232.544 132.898,230.600 133.665 M181.000 136.578 C 182.553 137.336,184.050 137.349,185.024 136.613 C 185.451 136.290,185.586 136.020,185.324 136.013 C 185.062 136.006,184.725 136.197,184.576 136.438 C 184.319 136.854,183.027 136.785,180.800 136.237 C 179.962 136.031,179.994 136.086,181.000 136.578 M222.900 136.276 C 223.285 136.376,223.915 136.376,224.300 136.276 C 224.685 136.175,224.370 136.093,223.600 136.093 C 222.830 136.093,222.515 136.175,222.900 136.276 M241.603 139.878 C 241.335 141.815,240.866 144.930,240.560 146.800 C 239.661 152.284,239.733 152.712,242.394 157.707 C 243.711 160.178,244.791 161.965,244.794 161.677 C 244.797 161.389,244.380 160.399,243.866 159.477 C 239.877 152.318,240.040 153.016,240.967 147.050 C 242.175 139.270,242.493 136.760,242.295 136.562 C 242.182 136.449,241.870 137.941,241.603 139.878 M164.197 149.400 C 164.290 150.500,164.541 152.750,164.755 154.400 C 165.065 156.797,165.027 157.634,164.570 158.565 C 163.793 160.144,164.175 160.395,164.982 158.836 C 165.643 157.556,165.431 153.958,164.412 149.200 L 164.027 147.400 164.197 149.400 M178.247 150.395 C 176.953 150.808,175.702 151.338,175.467 151.573 C 174.952 152.088,175.652 152.168,176.220 151.659 C 178.487 149.628,189.805 149.672,191.853 151.720 C 192.276 152.143,192.882 152.056,192.607 151.611 C 191.501 149.821,182.443 149.054,178.247 150.395 M217.991 150.510 C 212.861 152.259,208.177 156.307,205.508 161.298 C 204.772 162.674,203.952 163.755,203.685 163.700 C 203.418 163.645,203.200 163.780,203.200 164.000 C 203.200 165.133,204.515 164.146,205.442 162.317 C 209.395 154.516,216.231 149.990,224.035 150.006 C 226.718 150.011,231.107 150.973,231.853 151.720 C 232.276 152.143,232.882 152.056,232.607 151.611 C 231.439 149.722,222.318 149.035,217.991 150.510 M172.376 153.359 C 168.990 155.844,163.977 162.733,164.008 164.858 C 164.012 165.156,164.748 163.909,165.643 162.087 C 167.337 158.639,171.189 154.247,173.625 152.987 C 174.757 152.402,175.126 151.989,174.500 152.010 C 174.335 152.015,173.379 152.622,172.376 153.359 M193.200 152.190 C 193.200 152.294,193.756 152.667,194.436 153.019 C 196.392 154.030,200.180 158.092,201.750 160.863 C 203.270 163.546,203.734 163.814,202.429 161.256 C 200.581 157.635,193.200 150.383,193.200 152.190 M233.653 152.513 C 234.012 152.781,235.133 153.578,236.142 154.284 C 251.550 165.060,246.380 192.332,227.900 197.765 C 225.137 198.577,225.049 199.058,227.367 200.691 C 229.239 202.011,232.946 206.674,234.354 209.482 C 240.827 222.387,236.498 237.988,224.223 245.985 C 221.357 247.852,220.717 248.548,223.100 247.207 C 240.048 237.664,242.823 214.321,228.563 201.254 C 227.132 199.943,226.105 198.797,226.281 198.706 C 226.456 198.616,227.410 198.318,228.400 198.044 C 247.298 192.814,251.760 165.263,235.627 153.420 C 234.563 152.639,233.537 152.006,233.346 152.013 C 233.156 152.020,233.294 152.245,233.653 152.513 M162.617 162.600 C 162.058 163.865,161.600 165.137,161.600 165.426 C 161.600 165.716,161.420 166.064,161.200 166.200 C 160.980 166.336,160.812 166.752,160.826 167.124 C 160.851 167.785,161.587 166.407,162.708 163.600 C 163.016 162.830,163.445 161.867,163.661 161.461 C 163.878 161.055,163.961 160.627,163.845 160.511 C 163.729 160.395,163.176 161.335,162.617 162.600 M245.811 164.600 C 247.939 170.861,248.738 172.968,248.768 172.397 C 248.808 171.651,246.697 165.622,246.029 164.570 C 245.554 163.823,245.548 163.824,245.811 164.600 M163.400 166.400 C 163.250 166.873,163.217 167.350,163.327 167.460 C 163.437 167.570,163.650 167.273,163.800 166.800 C 163.950 166.327,163.983 165.850,163.873 165.740 C 163.763 165.630,163.550 165.927,163.400 166.400 M159.467 171.300 C 158.310 175.186,157.998 176.508,157.787 178.400 C 157.702 179.170,158.083 178.090,158.634 176.000 C 159.567 172.463,159.921 171.198,160.620 168.900 C 160.770 168.405,160.793 168.000,160.671 168.000 C 160.549 168.000,160.007 169.485,159.467 171.300 M185.867 168.267 C 185.504 168.630,185.528 170.308,185.900 170.538 C 186.065 170.640,186.200 170.111,186.200 169.362 C 186.200 168.613,186.185 168.000,186.167 168.000 C 186.148 168.000,186.013 168.120,185.867 168.267 M220.200 169.400 C 220.200 170.128,220.335 170.640,220.500 170.538 C 220.665 170.436,220.800 169.924,220.800 169.400 C 220.800 168.876,220.665 168.364,220.500 168.262 C 220.335 168.160,220.200 168.672,220.200 169.400 M162.654 170.256 C 162.329 172.627,162.365 176.150,162.735 178.200 C 162.915 179.198,163.025 177.657,163.028 174.100 C 163.033 167.772,163.017 167.610,162.654 170.256 M248.816 173.800 C 248.784 175.449,250.281 178.370,252.675 181.332 C 254.174 183.186,256.184 186.177,257.141 187.977 C 258.978 191.428,259.957 192.264,258.269 188.940 C 256.975 186.390,254.818 183.208,252.209 180.000 C 251.033 178.554,249.964 176.779,249.801 176.000 C 249.503 174.575,248.831 173.073,248.816 173.800 M157.232 180.824 C 157.214 181.166,156.541 182.516,155.735 183.824 C 152.805 188.575,150.028 194.562,150.523 195.057 C 150.632 195.165,150.947 194.567,151.224 193.729 C 151.894 191.697,153.594 188.176,154.859 186.200 C 156.520 183.605,157.661 181.174,157.455 180.670 C 157.343 180.395,157.250 180.458,157.232 180.824 M163.212 180.800 C 163.212 181.130,163.387 181.670,163.600 182.000 C 163.945 182.533,163.988 182.533,163.988 182.000 C 163.988 181.670,163.813 181.130,163.600 180.800 C 163.255 180.267,163.212 180.267,163.212 180.800 M164.000 183.110 C 164.000 185.208,169.117 192.366,172.121 194.472 C 172.825 194.965,172.023 193.996,170.339 192.318 C 167.997 189.984,166.894 188.486,165.639 185.935 C 164.738 184.101,164.000 182.830,164.000 183.110 M259.206 191.714 C 259.203 191.887,259.637 193.417,260.170 195.114 C 260.704 196.811,261.406 199.460,261.731 201.000 C 262.159 203.028,262.333 203.427,262.361 202.446 C 262.401 201.058,262.108 199.745,260.740 195.188 C 260.016 192.774,259.221 190.973,259.206 191.714 M173.600 195.392 C 173.600 196.091,179.818 198.407,181.600 198.371 C 182.150 198.360,181.250 197.991,179.600 197.551 C 177.950 197.110,176.005 196.401,175.277 195.975 C 173.907 195.172,173.600 195.066,173.600 195.392 M149.656 197.289 C 145.170 214.195,153.090 232.150,170.004 243.419 C 172.316 244.959,175.966 247.745,178.116 249.610 L 182.025 253.000 162.912 253.206 L 143.800 253.412 163.300 253.506 C 183.274 253.602,183.743 253.565,181.700 252.033 C 181.095 251.580,180.418 251.072,180.196 250.904 C 179.974 250.737,178.534 249.504,176.996 248.164 C 175.458 246.824,172.760 244.764,171.000 243.587 C 153.480 231.866,145.662 214.722,150.068 197.689 C 150.311 196.747,150.420 195.887,150.310 195.777 C 150.200 195.667,149.906 196.347,149.656 197.289 M181.931 201.752 C 177.504 206.437,173.502 213.803,173.631 217.030 C 173.647 217.454,173.993 216.720,174.398 215.400 C 174.804 214.080,175.368 212.370,175.651 211.600 C 176.633 208.932,180.441 203.613,183.022 201.305 C 185.383 199.193,186.083 198.317,185.300 198.452 C 185.135 198.480,183.619 199.965,181.931 201.752 M262.060 210.400 C 261.919 212.756,260.405 218.856,259.505 220.699 C 259.263 221.194,259.168 221.701,259.294 221.827 C 259.974 222.507,262.599 212.529,262.283 210.466 C 262.121 209.406,262.120 209.406,262.060 210.400 M173.337 222.200 C 173.339 223.960,173.409 224.630,173.493 223.689 C 173.578 222.749,173.577 221.309,173.491 220.489 C 173.405 219.670,173.336 220.440,173.337 222.200 M257.435 225.291 C 252.916 233.812,244.828 241.353,234.539 246.640 C 230.527 248.702,225.057 252.645,225.412 253.219 C 225.557 253.454,232.729 253.563,244.124 253.504 L 262.600 253.408 244.300 253.300 C 226.373 253.194,224.777 253.071,226.900 251.955 C 227.395 251.695,228.392 250.969,229.115 250.340 C 229.838 249.712,232.069 248.382,234.073 247.385 C 236.076 246.388,238.212 245.219,238.819 244.786 C 239.427 244.354,240.040 244.000,240.183 244.000 C 243.060 244.000,254.931 231.383,258.226 224.822 C 259.824 221.642,259.163 222.033,257.435 225.291 M173.652 227.200 C 173.509 230.720,177.900 238.699,182.252 242.828 C 185.774 246.169,193.174 250.460,195.278 250.380 C 195.565 250.369,194.436 249.784,192.769 249.080 C 182.552 244.764,176.272 237.425,173.877 227.000 C 173.728 226.352,173.685 226.390,173.652 227.200 M218.586 248.963 C 217.478 249.467,215.588 250.116,214.386 250.405 C 213.184 250.694,212.426 251.006,212.702 251.099 C 213.323 251.308,218.053 249.805,219.978 248.787 C 221.964 247.737,221.016 247.857,218.586 248.963 M196.600 250.800 C 197.796 251.314,198.795 251.314,198.000 250.800 C 197.670 250.587,197.040 250.422,196.600 250.434 L 195.800 250.456 196.600 250.800 M200.800 251.663 C 203.181 252.030,208.199 252.028,210.200 251.658 C 211.176 251.478,209.306 251.367,205.400 251.373 C 201.502 251.380,199.704 251.493,200.800 251.663 " stroke="none" fill="#c1ac9f" fill-rule="evenodd"></path><path id="path7" d="M205.824 116.613 C 205.396 116.936,205.251 117.200,205.500 117.200 C 205.749 117.200,206.064 117.020,206.200 116.800 C 206.526 116.272,208.000 116.283,208.000 116.814 C 208.000 117.042,207.692 117.717,207.316 118.314 L 206.631 119.400 207.516 118.638 C 209.496 116.931,207.911 115.034,205.824 116.613 M203.071 118.446 C 202.239 119.131,201.632 119.765,201.721 119.854 C 201.810 119.943,202.574 119.382,203.419 118.608 C 205.322 116.865,205.108 116.766,203.071 118.446 M205.629 120.165 C 205.341 120.512,205.215 121.709,205.303 123.265 L 205.446 125.800 205.523 123.180 C 205.565 121.739,205.816 120.344,206.080 120.080 C 206.344 119.816,206.456 119.600,206.329 119.600 C 206.202 119.600,205.887 119.854,205.629 120.165 M201.006 121.180 C 200.665 122.257,198.744 125.200,198.383 125.200 C 198.232 125.200,197.650 124.840,197.091 124.400 C 196.531 123.960,195.827 123.600,195.526 123.600 C 195.225 123.600,194.561 123.308,194.052 122.951 C 193.190 122.348,193.080 122.353,192.463 123.029 C 191.844 123.708,191.845 123.723,192.483 123.243 C 193.046 122.820,193.324 122.841,194.072 123.365 C 194.570 123.714,195.215 124.000,195.505 124.000 C 195.795 124.000,196.581 124.405,197.252 124.900 L 198.473 125.800 199.435 124.600 C 200.566 123.190,201.754 120.820,201.471 120.537 C 201.362 120.429,201.153 120.718,201.006 121.180 M211.200 123.104 C 209.878 123.979,206.742 126.800,207.092 126.800 C 207.243 126.800,208.004 126.188,208.783 125.439 C 209.562 124.691,210.917 123.701,211.794 123.239 C 212.671 122.778,213.121 122.409,212.794 122.421 C 212.467 122.433,211.750 122.740,211.200 123.104 M214.700 122.665 C 215.552 123.009,215.256 124.101,213.908 125.581 C 212.932 126.653,213.046 126.591,214.378 125.325 C 216.100 123.687,216.229 122.321,214.651 122.432 C 214.368 122.451,214.386 122.538,214.700 122.665 M194.741 128.089 C 196.524 129.975,197.547 131.362,197.369 131.651 C 197.185 131.948,197.248 132.017,197.539 131.838 C 198.229 131.411,197.612 130.539,194.539 127.600 L 191.821 125.000 194.741 128.089 M211.264 130.686 C 211.200 131.972,212.040 132.842,213.274 132.768 C 213.563 132.751,213.316 132.560,212.723 132.343 C 211.925 132.051,211.606 131.620,211.487 130.674 L 211.328 129.400 211.264 130.686 M164.097 131.614 C 162.727 132.164,162.291 133.501,162.728 135.812 L 163.104 137.800 163.052 135.322 C 162.989 132.303,163.395 131.812,165.907 131.871 C 167.375 131.906,167.575 131.844,166.800 131.598 C 165.486 131.180,165.171 131.182,164.097 131.614 M238.200 131.563 C 237.607 131.803,237.837 131.887,239.093 131.888 C 242.198 131.893,242.236 132.014,241.418 139.200 C 241.274 140.462,241.383 140.223,241.782 138.400 C 242.993 132.863,241.594 130.191,238.200 131.563 M194.600 132.497 C 193.940 132.723,192.590 133.255,191.600 133.679 C 188.816 134.871,191.003 134.259,195.600 132.559 C 197.247 131.950,196.356 131.895,194.600 132.497 M171.600 133.600 C 172.590 134.015,173.670 134.357,174.000 134.359 C 174.330 134.361,173.700 134.011,172.600 133.582 C 170.045 132.584,169.215 132.599,171.600 133.600 M232.000 133.620 C 231.010 134.025,230.470 134.356,230.800 134.356 C 231.130 134.356,232.210 134.015,233.200 133.600 C 234.190 133.185,234.730 132.853,234.400 132.864 C 234.070 132.874,232.990 133.214,232.000 133.620 M180.400 136.763 C 182.728 137.788,183.922 137.788,185.400 136.763 C 186.680 135.875,186.486 135.882,184.674 136.789 C 183.749 137.252,183.252 137.264,181.874 136.858 C 178.883 135.977,178.569 135.957,180.400 136.763 M222.140 136.494 C 222.715 136.861,224.359 136.838,225.348 136.450 C 225.799 136.273,225.220 136.165,223.888 136.178 C 222.673 136.190,221.886 136.332,222.140 136.494 M163.287 140.600 C 163.291 141.040,163.432 141.940,163.600 142.600 C 163.874 143.678,163.906 143.698,163.913 142.800 C 163.917 142.250,163.776 141.350,163.600 140.800 C 163.349 140.016,163.281 139.973,163.287 140.600 M240.901 143.000 C 240.905 143.880,240.987 144.193,241.083 143.695 C 241.179 143.198,241.175 142.478,241.075 142.095 C 240.975 141.713,240.896 142.120,240.901 143.000 M164.114 145.800 C 164.117 146.900,164.195 147.303,164.287 146.695 C 164.379 146.086,164.377 145.186,164.282 144.695 C 164.187 144.203,164.111 144.700,164.114 145.800 M164.470 148.600 C 164.457 149.040,164.595 150.120,164.777 151.000 C 165.055 152.345,165.108 152.409,165.107 151.400 C 165.105 149.999,164.508 147.370,164.470 148.600 M183.300 149.476 C 183.685 149.576,184.315 149.576,184.700 149.476 C 185.085 149.375,184.770 149.293,184.000 149.293 C 183.230 149.293,182.915 149.375,183.300 149.476 M223.300 149.476 C 223.685 149.576,224.315 149.576,224.700 149.476 C 225.085 149.375,224.770 149.293,224.000 149.293 C 223.230 149.293,222.915 149.375,223.300 149.476 M178.400 150.018 C 177.962 150.315,178.124 150.352,179.000 150.156 C 180.471 149.827,180.790 149.598,179.767 149.606 C 179.345 149.609,178.730 149.795,178.400 150.018 M218.400 150.018 C 217.962 150.315,218.124 150.352,219.000 150.156 C 220.471 149.827,220.790 149.598,219.767 149.606 C 219.345 149.609,218.730 149.795,218.400 150.018 M191.800 151.200 C 193.799 152.219,194.139 152.219,192.600 151.200 C 191.940 150.763,191.137 150.404,190.815 150.403 C 190.494 150.401,190.937 150.760,191.800 151.200 M165.309 154.400 C 165.309 155.390,165.387 155.795,165.482 155.300 C 165.578 154.805,165.578 153.995,165.482 153.500 C 165.387 153.005,165.309 153.410,165.309 154.400 M196.682 154.163 C 197.607 154.973,199.021 156.393,199.824 157.318 C 200.646 158.265,200.931 158.475,200.476 157.800 C 199.630 156.545,197.171 154.138,195.800 153.223 C 195.360 152.929,195.757 153.352,196.682 154.163 M235.400 153.065 C 237.613 155.250,240.410 157.572,239.000 156.055 C 238.120 155.108,236.860 153.959,236.200 153.502 C 235.540 153.045,235.180 152.848,235.400 153.065 M169.562 155.500 C 167.984 157.159,165.940 159.680,167.049 158.600 C 168.241 157.440,171.692 153.600,171.543 153.600 C 171.448 153.600,170.556 154.455,169.562 155.500 M209.363 155.700 C 207.664 157.476,205.412 160.212,206.646 159.000 C 207.980 157.691,211.693 153.600,211.547 153.600 C 211.451 153.600,210.468 154.545,209.363 155.700 M241.800 157.200 C 242.141 157.860,242.511 158.400,242.621 158.400 C 242.731 158.400,242.541 157.860,242.200 157.200 C 241.859 156.540,241.489 156.000,241.379 156.000 C 241.269 156.000,241.459 156.540,241.800 157.200 M164.778 159.098 C 163.874 160.901,163.887 161.079,164.820 159.683 C 165.304 158.959,165.617 158.283,165.515 158.182 C 165.413 158.080,165.081 158.492,164.778 159.098 M241.194 159.192 C 242.267 160.698,244.390 165.354,244.432 166.291 C 244.450 166.709,244.546 166.795,244.665 166.500 C 245.068 165.502,241.461 158.000,240.578 158.000 C 240.450 158.000,240.727 158.536,241.194 159.192 M165.708 160.300 C 164.874 161.528,163.905 163.639,164.090 163.824 C 164.156 163.890,164.770 162.876,165.454 161.572 C 166.800 159.005,166.889 158.560,165.708 160.300 M243.231 159.716 C 243.184 160.200,246.096 166.438,246.282 166.251 C 246.372 166.161,245.729 164.583,244.854 162.744 C 243.978 160.905,243.248 159.542,243.231 159.716 M204.839 161.823 C 204.341 162.667,203.815 163.133,203.548 162.968 C 203.289 162.808,203.165 162.896,203.258 163.174 C 203.577 164.131,204.200 163.772,205.122 162.100 C 206.256 160.045,206.023 159.818,204.839 161.823 M163.233 165.900 C 162.941 166.784,162.800 167.753,162.920 168.054 C 163.043 168.363,163.151 168.198,163.168 167.674 C 163.186 167.164,163.392 166.389,163.626 165.952 C 163.860 165.514,163.987 164.961,163.908 164.724 C 163.829 164.486,163.525 165.015,163.233 165.900 M184.800 165.038 C 175.915 168.886,177.919 184.845,187.280 184.787 C 190.032 184.769,192.039 183.399,193.704 180.400 C 197.881 172.879,191.623 162.082,184.800 165.038 M217.000 165.182 C 213.225 166.987,211.445 170.088,211.475 174.812 C 211.538 184.972,221.490 188.648,226.061 180.200 C 230.219 172.516,223.826 161.920,217.000 165.182 M161.885 165.484 C 161.765 165.878,161.296 167.178,160.841 168.374 C 160.387 169.570,160.077 170.611,160.154 170.687 C 160.230 170.763,160.514 170.235,160.784 169.513 C 161.054 168.791,161.557 167.523,161.900 166.696 C 162.244 165.869,162.430 165.097,162.313 164.980 C 162.197 164.864,162.004 165.090,161.885 165.484 M188.800 165.594 C 189.271 165.894,189.117 166.033,188.088 166.240 C 185.269 166.808,184.394 169.655,186.416 171.678 C 188.483 173.744,192.000 172.139,192.000 169.129 C 192.000 167.416,192.935 168.243,193.771 170.696 C 197.524 181.710,186.551 189.451,180.799 179.847 C 177.069 173.618,183.476 162.205,188.800 165.594 M221.474 165.625 C 229.341 168.598,227.691 184.446,219.520 184.391 C 213.199 184.349,209.582 174.671,213.683 168.771 L 214.358 167.800 214.379 169.078 C 214.428 172.055,217.710 173.665,219.927 171.800 C 222.202 169.886,221.305 166.932,218.215 166.165 C 217.166 165.904,217.120 165.835,217.815 165.563 C 218.951 165.119,220.189 165.140,221.474 165.625 M190.800 167.600 C 192.552 169.352,191.206 172.160,188.614 172.160 C 186.040 172.160,184.729 169.485,186.416 167.675 C 187.475 166.538,189.700 166.500,190.800 167.600 M219.984 167.675 C 222.034 169.876,219.524 173.112,216.623 172.009 C 213.842 170.951,214.603 166.800,217.578 166.800 C 218.699 166.800,219.409 167.058,219.984 167.675 M246.609 167.800 C 246.758 168.240,247.300 169.950,247.813 171.600 C 248.327 173.250,248.757 174.330,248.768 174.000 C 248.797 173.203,247.315 168.507,246.770 167.665 C 246.402 167.096,246.379 167.116,246.609 167.800 M162.257 170.300 C 161.953 172.137,162.004 176.578,162.347 178.177 C 162.486 178.825,162.600 176.980,162.600 174.077 C 162.600 168.190,162.602 168.211,162.257 170.300 M158.495 176.640 C 158.229 177.908,158.079 179.012,158.161 179.094 C 158.390 179.323,159.294 175.283,159.126 174.779 C 159.045 174.535,158.761 175.373,158.495 176.640 M157.600 180.426 C 157.600 180.881,157.410 181.646,157.178 182.126 C 156.770 182.970,156.777 182.974,157.378 182.224 C 157.952 181.506,158.259 179.600,157.800 179.600 C 157.690 179.600,157.600 179.972,157.600 180.426 M240.972 189.100 C 240.577 189.705,239.431 191.115,238.426 192.234 C 236.911 193.923,236.988 193.873,238.881 191.944 C 240.135 190.666,241.356 189.256,241.595 188.810 C 242.229 187.625,241.809 187.821,240.972 189.100 M169.583 192.500 C 170.564 193.545,171.419 194.400,171.483 194.400 C 171.784 194.400,171.466 194.041,169.700 192.383 L 167.800 190.600 169.583 192.500 M172.000 194.610 C 172.000 194.893,175.199 196.935,175.366 196.759 C 175.448 196.671,174.725 196.112,173.758 195.515 C 172.791 194.919,172.000 194.511,172.000 194.610 M234.020 195.631 C 233.040 196.274,232.414 196.800,232.627 196.800 C 233.064 196.800,236.000 194.872,236.000 194.586 C 236.000 194.329,236.014 194.322,234.020 195.631 M182.795 198.760 L 184.590 199.000 183.595 199.826 C 183.048 200.280,181.701 201.630,180.602 202.826 C 179.278 204.267,179.650 203.991,181.702 202.010 C 185.342 198.497,185.381 198.382,182.900 198.460 L 181.000 198.520 182.795 198.760 M226.267 198.700 C 226.168 198.865,227.373 200.157,228.944 201.571 L 231.800 204.143 229.258 201.519 C 227.535 199.739,226.891 198.825,227.258 198.679 C 227.642 198.526,227.603 198.454,227.124 198.432 C 226.752 198.414,226.366 198.535,226.267 198.700 M262.137 206.600 C 262.139 208.360,262.209 209.030,262.293 208.089 C 262.378 207.149,262.377 205.709,262.291 204.889 C 262.205 204.070,262.136 204.840,262.137 206.600 M148.920 206.800 C 148.920 208.010,148.995 208.505,149.087 207.900 C 149.178 207.295,149.178 206.305,149.087 205.700 C 148.995 205.095,148.920 205.590,148.920 206.800 M233.639 207.376 C 234.101 208.159,234.556 208.800,234.650 208.800 C 234.934 208.800,233.636 206.469,233.202 206.201 C 232.980 206.064,233.177 206.593,233.639 207.376 M236.014 212.054 C 236.006 212.194,236.263 212.914,236.584 213.654 C 236.906 214.394,237.169 214.730,237.170 214.400 C 237.172 213.824,236.043 211.534,236.014 212.054 M173.293 218.000 C 173.293 218.770,173.375 219.085,173.476 218.700 C 173.576 218.315,173.576 217.685,173.476 217.300 C 173.375 216.915,173.293 217.230,173.293 218.000 M172.931 222.200 C 172.933 223.740,173.005 224.321,173.092 223.491 C 173.179 222.661,173.177 221.401,173.089 220.691 C 173.000 219.981,172.929 220.660,172.931 222.200 M238.109 222.000 C 238.109 222.990,238.187 223.395,238.282 222.900 C 238.378 222.405,238.378 221.595,238.282 221.100 C 238.187 220.605,238.109 221.010,238.109 222.000 M173.293 226.400 C 173.293 227.170,173.375 227.485,173.476 227.100 C 173.576 226.715,173.576 226.085,173.476 225.700 C 173.375 225.315,173.293 225.630,173.293 226.400 M159.600 234.125 C 159.600 234.194,160.185 234.779,160.900 235.425 L 162.200 236.600 161.025 235.300 C 159.930 234.088,159.600 233.816,159.600 234.125 M232.000 239.200 C 231.530 239.860,231.236 240.400,231.346 240.400 C 231.456 240.400,231.930 239.860,232.400 239.200 C 232.870 238.540,233.164 238.000,233.054 238.000 C 232.944 238.000,232.470 238.540,232.000 239.200 M181.600 242.600 C 182.795 243.810,183.863 244.800,183.973 244.800 C 184.083 244.800,183.195 243.810,182.000 242.600 C 180.805 241.390,179.737 240.400,179.627 240.400 C 179.517 240.400,180.405 241.390,181.600 242.600 M229.200 242.509 C 228.210 243.439,226.770 244.707,226.000 245.326 C 224.808 246.284,224.875 246.265,226.450 245.194 C 228.097 244.074,231.646 240.786,231.181 240.809 C 231.082 240.814,230.190 241.579,229.200 242.509 M170.400 242.946 C 170.400 243.056,170.940 243.530,171.600 244.000 C 172.260 244.470,172.800 244.764,172.800 244.654 C 172.800 244.544,172.260 244.070,171.600 243.600 C 170.940 243.130,170.400 242.836,170.400 242.946 M174.400 245.725 C 174.400 245.794,174.985 246.379,175.700 247.025 L 177.000 248.200 175.825 246.900 C 174.730 245.688,174.400 245.416,174.400 245.725 M233.500 246.827 C 232.675 247.263,232.000 247.708,232.000 247.818 C 232.000 247.927,232.720 247.649,233.600 247.200 C 234.480 246.751,235.200 246.297,235.200 246.192 C 235.200 245.930,235.197 245.931,233.500 246.827 M220.400 248.600 C 219.410 249.130,218.742 249.572,218.916 249.582 C 219.341 249.606,222.400 248.034,222.400 247.792 C 222.400 247.527,222.417 247.520,220.400 248.600 M177.200 248.125 C 177.200 248.194,177.785 248.779,178.500 249.425 L 179.800 250.600 178.625 249.300 C 177.530 248.088,177.200 247.816,177.200 248.125 M228.900 249.625 C 227.745 250.511,226.800 251.324,226.800 251.431 C 226.800 251.538,227.790 250.878,229.000 249.965 C 230.910 248.523,231.491 247.981,231.100 248.007 C 231.045 248.010,230.055 248.738,228.900 249.625 M180.600 251.268 C 181.040 251.512,181.679 251.912,182.020 252.156 C 182.360 252.400,182.215 252.195,181.697 251.700 C 181.179 251.205,180.540 250.805,180.278 250.812 C 180.015 250.819,180.160 251.024,180.600 251.268 M203.900 252.293 C 204.835 252.377,206.365 252.377,207.300 252.293 C 208.235 252.209,207.470 252.140,205.600 252.140 C 203.730 252.140,202.965 252.209,203.900 252.293 M144.109 255.200 C 144.109 256.190,144.187 256.595,144.282 256.100 C 144.378 255.605,144.378 254.795,144.282 254.300 C 144.187 253.805,144.109 254.210,144.109 255.200 M262.101 255.000 C 262.105 255.880,262.187 256.193,262.283 255.695 C 262.379 255.198,262.375 254.478,262.275 254.095 C 262.175 253.713,262.096 254.120,262.101 255.000 M144.109 261.200 C 144.109 262.190,144.187 262.595,144.282 262.100 C 144.378 261.605,144.378 260.795,144.282 260.300 C 144.187 259.805,144.109 260.210,144.109 261.200 M261.936 264.801 C 261.861 266.121,261.935 267.201,262.100 267.201 C 262.265 267.200,262.400 266.120,262.400 264.800 C 262.400 261.702,262.110 261.702,261.936 264.801 M144.072 265.100 L 144.000 267.200 147.300 267.120 L 150.600 267.039 147.521 266.903 L 144.442 266.767 144.293 264.884 L 144.144 263.000 144.072 265.100 M202.905 267.087 C 203.514 267.179,204.414 267.177,204.905 267.082 C 205.397 266.987,204.900 266.911,203.800 266.914 C 202.700 266.917,202.297 266.995,202.905 267.087 M229.700 267.087 C 230.305 267.178,231.295 267.178,231.900 267.087 C 232.505 266.995,232.010 266.920,230.800 266.920 C 229.590 266.920,229.095 266.995,229.700 267.087 " stroke="none" fill="#5c747c" fill-rule="evenodd"></path><path id="path8" d="M205.646 123.676 C 205.621 124.928,205.735 126.036,205.900 126.138 C 206.065 126.240,206.146 125.486,206.080 124.462 C 205.893 121.541,205.697 121.186,205.646 123.676 M242.493 134.400 C 242.493 135.170,242.575 135.485,242.676 135.100 C 242.776 134.715,242.776 134.085,242.676 133.700 C 242.575 133.315,242.493 133.630,242.493 134.400 M209.781 156.100 L 208.200 157.800 209.900 156.219 C 211.481 154.748,211.784 154.400,211.481 154.400 C 211.416 154.400,210.651 155.165,209.781 156.100 M237.600 155.800 C 238.346 156.570,239.047 157.200,239.157 157.200 C 239.267 157.200,238.746 156.570,238.000 155.800 C 237.254 155.030,236.553 154.400,236.443 154.400 C 236.333 154.400,236.854 155.030,237.600 155.800 M198.200 182.647 C 191.020 186.761,190.895 189.113,197.506 195.706 C 204.027 202.210,204.007 202.210,210.506 195.694 C 217.348 188.834,217.058 186.384,208.911 182.256 C 205.681 180.619,201.470 180.773,198.200 182.647 M209.090 183.400 C 210.233 184.170,211.362 184.800,211.598 184.800 C 212.732 184.800,214.400 187.237,214.400 188.895 C 214.400 190.486,214.194 190.768,209.881 195.081 C 203.809 201.153,204.090 201.155,198.025 195.008 L 193.494 190.416 193.704 188.558 C 193.819 187.537,194.092 186.588,194.310 186.451 C 194.529 186.313,195.282 185.750,195.985 185.200 C 200.685 181.522,205.350 180.882,209.090 183.400 M255.477 184.431 C 255.875 185.108,256.456 185.873,256.768 186.131 C 257.080 186.389,256.832 185.835,256.215 184.900 C 254.920 182.937,254.409 182.612,255.477 184.431 M237.375 192.500 L 236.200 193.800 237.500 192.625 C 238.215 191.979,238.800 191.394,238.800 191.325 C 238.800 191.016,238.470 191.288,237.375 192.500 M228.800 202.200 C 229.546 202.970,230.247 203.600,230.357 203.600 C 230.467 203.600,229.946 202.970,229.200 202.200 C 228.454 201.430,227.753 200.800,227.643 200.800 C 227.533 200.800,228.054 201.430,228.800 202.200 M148.128 206.800 C 148.128 208.230,148.201 208.815,148.289 208.100 C 148.378 207.385,148.378 206.215,148.289 205.500 C 148.201 204.785,148.128 205.370,148.128 206.800 M262.501 207.000 C 262.505 207.880,262.587 208.193,262.683 207.695 C 262.779 207.198,262.775 206.478,262.675 206.095 C 262.575 205.713,262.496 206.120,262.501 207.000 M237.314 222.200 C 237.317 223.300,237.395 223.703,237.487 223.095 C 237.579 222.486,237.577 221.586,237.482 221.095 C 237.387 220.603,237.311 221.100,237.314 222.200 M259.665 221.417 C 258.995 222.888,259.123 223.202,259.847 221.865 C 260.186 221.240,260.388 220.654,260.296 220.563 C 260.205 220.471,259.921 220.856,259.665 221.417 M254.800 230.400 C 254.330 231.060,254.036 231.600,254.146 231.600 C 254.256 231.600,254.730 231.060,255.200 230.400 C 255.670 229.740,255.964 229.200,255.854 229.200 C 255.744 229.200,255.270 229.740,254.800 230.400 M158.400 233.710 C 158.400 233.771,159.795 235.166,161.500 236.810 L 164.600 239.800 161.610 236.700 C 158.833 233.821,158.400 233.417,158.400 233.710 M181.800 242.000 C 182.883 243.100,183.860 244.000,183.970 244.000 C 184.080 244.000,183.283 243.100,182.200 242.000 C 181.117 240.900,180.140 240.000,180.030 240.000 C 179.920 240.000,180.717 240.900,181.800 242.000 M203.505 251.483 C 204.002 251.579,204.722 251.575,205.105 251.475 C 205.487 251.375,205.080 251.296,204.200 251.301 C 203.320 251.305,203.007 251.387,203.505 251.483 M143.761 260.400 C 143.761 263.810,143.822 265.205,143.897 263.500 C 143.972 261.795,143.972 259.005,143.897 257.300 C 143.822 255.595,143.761 256.990,143.761 260.400 M262.561 260.400 C 262.561 263.810,262.622 265.205,262.697 263.500 C 262.772 261.795,262.772 259.005,262.697 257.300 C 262.622 255.595,262.561 256.990,262.561 260.400 M145.105 267.483 C 145.602 267.579,146.322 267.575,146.705 267.475 C 147.087 267.375,146.680 267.296,145.800 267.301 C 144.920 267.305,144.607 267.387,145.105 267.483 M154.300 267.498 C 156.555 267.570,160.245 267.570,162.500 267.498 C 164.755 267.427,162.910 267.369,158.400 267.369 C 153.890 267.369,152.045 267.427,154.300 267.498 M167.700 267.476 C 168.085 267.576,168.715 267.576,169.100 267.476 C 169.485 267.375,169.170 267.293,168.400 267.293 C 167.630 267.293,167.315 267.375,167.700 267.476 M177.474 267.499 C 181.255 267.565,187.555 267.565,191.474 267.499 C 195.393 267.434,192.300 267.380,184.600 267.380 C 176.900 267.380,173.693 267.434,177.474 267.499 M199.907 267.490 C 200.626 267.579,201.706 267.577,202.307 267.486 C 202.908 267.395,202.320 267.322,201.000 267.324 C 199.680 267.326,199.188 267.401,199.907 267.490 M208.900 267.498 C 211.265 267.569,215.135 267.569,217.500 267.498 C 219.865 267.428,217.930 267.370,213.200 267.370 C 208.470 267.370,206.535 267.428,208.900 267.498 M231.327 267.500 C 236.347 267.563,244.447 267.563,249.327 267.500 C 254.207 267.436,250.100 267.384,240.200 267.384 C 230.300 267.384,226.307 267.436,231.327 267.500 M259.905 267.483 C 260.402 267.579,261.122 267.575,261.505 267.475 C 261.887 267.375,261.480 267.296,260.600 267.301 C 259.720 267.305,259.407 267.387,259.905 267.483 " stroke="none" fill="#e4bea2" fill-rule="evenodd"></path></g></svg>